<svg width="7996" height="8819" viewBox="0 0 7996 8819" fill="none" xmlns="http://www.w3.org/2000/svg">
<g id="all">
<g id="outlines">
<g id="front">
<path id="Vector" d="M1377.93 1269.23H1430.68L1461.78 1257.77L1494.22 1231.69L1529.82 1198.65L1576.95 1152.17L1619.9 1099.97L1661.23 1041.27L1685.46 999.197C1685.46 999.197 1685.46 968.208 1685.46 957.882C1685.46 947.556 1696.68 904.758 1696.68 904.758L1708.84 865.79H1746.38L1778.3 828.603L1801.48 781.965L1817.18 722.557L1827.52 659.139V606.687L1817.18 568.914L1801.48 554.289L1764.93 545.189H1746.38L1764.93 444.893V335.669L1746.38 260.986L1691.25 178.057L1619.9 109.689L1546.14 62.4323L1472.64 25.9495L1394.97 18.0449L1314.58 25.9495L1239.36 37.6836L1176.79 68.6194L1099.05 124.997L1043.93 186.218L1010.75 247.534L982.727 307.816L976.07 391.471L989.554 486.454L999.038 554.289L963.845 545.189L943.138 554.289L922.773 579.656L912.394 606.687V639.33V682.117L922.773 728.425L943.138 781.965L963.845 833.691L999.038 859.923L1037.21 865.79L1043.93 904.758L1051.97 957.882L1063.24 1013.46L1085.71 1047.5L1115.95 1092.08L1161.93 1142.86L1202.99 1192.26L1279.12 1242.13L1326.81 1269.23H1377.93Z" stroke="black" stroke-width="5" stroke-miterlimit="10" stroke-linejoin="round"/>
<path id="Vector_2" d="M1061.43 999.197L1066.47 1092.92L1078.5 1186.99V1251.66L991.666 1307.97L895.314 1359.95L793.596 1431.08L661.838 1513.07L531.06 1528.33L420.908 1554.62L328.821 1600.42L253.384 1655.97L187.723 1740.58L130.09 1849.36C130.09 1849.36 98.5872 1910.22 88.0858 1960.81C77.5854 2011.39 88.0858 2051.7 88.0858 2051.7V2185.19L103.449 2265.89L130.09 2347.94L151.15 2416.45L130.09 2487.22L103.449 2576.41L88.0858 2670.91L80.1617 2746.24V2886.79V2975.2L88.0858 3053.61L103.449 3121.96V3170.21L88.0858 3247.19L46.8737 3330.58L21.7638 3409.03L3.33398 3515.18V3635.83L21.7638 3785.68L46.8737 3923.76L68.5764 4041.01L88.0858 4148.5L103.449 4281.24L118.914 4380.79L130.09 4465.46L137.945 4539.49V4624.37L130.09 4675.34L118.914 4737.74L103.449 4821.64L88.0858 4879.62L80.1617 4904.23V5016.82L130.09 5087.53L205.801 5161.08L240.722 5212.66H292.051L391.986 5198.63L460.244 5161.08L476.326 5111.43L484.028 5078.67L540.577 5038.41L556.322 4960.33L540.577 4888.11L497.83 4795.47L460.244 4737.74L429.554 4675.34L412.479 4635.65L404.104 4512.06L391.986 4380.79L382.331 4291.53L391.986 4221.14L412.479 4141.5L448.426 4032.97L484.028 3904.28L531.06 3785.68L540.577 3674.49V3570.33V3493.95L515.127 3378.9L491.858 3275.38L484.028 3198.13L497.83 3104.6L531.06 3026.68L556.322 2933.17V2824.63L564.163 2688.76L576.111 2588.82M576.111 2588.82V2462.55M576.111 2588.82L597.639 2706.12L642.102 2832.36L684.39 2954.92L714.078 3026.68L745.474 3088.91V3138.48L735.553 3224.16L726.688 3310.83V3426.13L735.553 3473.02V3550.9L726.688 3581.09L703.144 3627.9L684.39 3710.94V3817.64L676.997 3904.28L661.838 4024.18L632.789 4154.56L609.683 4275.84L592.87 4393.17L585.296 4535.07V4646.16L576.111 4813V4904.23V5008.12L592.87 5167.52L616.627 5351.02L654.573 5505.61L684.39 5663.53L726.688 5794.23L771.301 5910.16L816.831 6006.55L835.105 6056.44L828.491 6176.96L835.105 6266.05L859.662 6375.12L847.853 6427.43L821.205 6509.83L778.267 6679.49L759.907 6878.23L752.589 7026.27L759.907 7235.53L806.771 7416.34L864.495 7652.18L913.098 7792.88L950.35 7962.8L991.666 8111.22L1022.11 8306.38L1030.45 8401.38L1022.11 8447.66L980.22 8514.15L939.437 8572.68L871.525 8646.85L828.491 8696.03L778.267 8707.13L714.078 8731.02L672.559 8776.46L684.39 8815.61H771.301H991.666H1189L1341.34 8811.56L1365.3 8796.73L1374.92 8766.12L1365.3 8715.77L1331.36 8655.28L1310.94 8560.48L1331.36 8465.62L1326.39 8422.47L1310.94 8362.86L1294.57 8253.11L1284.96 8111.22L1278.61 7916.4L1284.96 7722.9L1304.83 7578.52L1317.16 7451.16L1341.34 7354.61L1365.3 7268.86L1374.92 7189.57L1389.45 7026.27V6898.36L1365.3 6769.12L1331.36 6649.38L1294.57 6566.16V6488.14L1317.16 6415.55L1326.39 6299.68V6176.96V6116.32L1294.57 6056.44L1284.96 6000.57L1294.57 5934.22L1317.16 5859.79L1331.36 5806.3L1336.55 5707.95L1341.34 5640.94L1347.04 5501.11L1354.01 5337.66L1360.49 5187.52L1365.3 4972.74V4790.87V4758.16V4732.17L1374.92 4723.76H1394.98M576.111 2462.55V2387.92V2371.27V2462.55Z" stroke="black" stroke-width="5" stroke-miterlimit="10" stroke-linejoin="round"/>
<path id="Vector_3" d="M1685.34 994.066L1673.92 1051.08V1144.74V1238.29L1782.07 1292.48L1876.85 1359.95L1961.45 1431.08L2063.25 1513.07L2258.88 1528.33L2369.03 1554.62L2461.12 1600.42L2536.56 1655.97L2602.22 1740.58L2659.85 1849.36C2659.85 1849.36 2691.35 1910.22 2701.86 1960.81C2712.36 2011.39 2701.86 2051.7 2701.86 2051.7V2185.19L2686.5 2265.89L2659.85 2347.94L2638.79 2416.45L2659.85 2487.22L2686.5 2576.41L2701.86 2670.91L2709.78 2746.24V2886.79V2975.2L2701.86 3053.61L2686.5 3121.96V3170.21L2701.86 3247.19L2743.07 3330.58L2768.18 3409.03L2786.61 3515.18V3635.83L2768.18 3785.68L2743.07 3923.76L2721.36 4041.01L2701.86 4148.5L2686.5 4281.24L2671.03 4380.79L2659.85 4465.46L2652 4539.49V4624.37L2659.85 4675.34L2671.03 4737.74L2686.5 4821.64L2701.86 4879.62L2709.78 4904.23V5016.82L2659.85 5087.53L2584.14 5161.08L2549.23 5212.66H2497.89L2397.96 5198.63L2329.7 5161.08L2313.62 5111.43L2305.91 5078.67L2249.36 5038.41L2233.62 4960.33L2249.36 4888.11L2292.11 4795.47L2329.7 4737.74L2360.39 4675.34L2377.46 4635.65L2385.84 4512.06L2397.96 4380.79L2407.61 4291.53L2397.96 4221.14L2377.46 4141.5L2341.51 4032.97L2305.91 3904.28L2258.88 3785.68L2249.36 3674.5V3570.33V3493.95L2274.82 3378.9L2298.08 3275.38L2305.91 3198.13L2292.11 3104.6L2258.88 3026.68L2233.62 2933.17V2824.63L2225.78 2688.76L2213.83 2588.82M2213.83 2588.82V2462.55L2197.08 2347.94M2213.83 2588.82L2192.3 2706.12L2147.85 2832.36L2105.56 2954.92L2075.86 3026.68L2044.47 3088.91V3138.48L2054.39 3224.16L2063.25 3310.83V3426.13L2054.39 3473.02V3550.9L2063.25 3581.09L2086.8 3627.9L2105.56 3710.94V3817.64L2112.94 3904.28L2128.1 4024.18L2157.16 4154.56L2180.26 4275.84L2197.08 4393.17L2204.65 4535.07V4646.16L2213.83 4813V4904.23V5008.12L2197.08 5167.52L2173.31 5351.02L2135.38 5505.61L2105.56 5663.53L2063.25 5794.23L2018.65 5910.16L1973.11 6006.55L1954.84 6056.44L1961.45 6176.96L1954.84 6266.05L1930.28 6375.12L1942.09 6427.43L1968.73 6509.83L2011.67 6679.49L2030.03 6878.23L2037.36 7026.27L2030.03 7235.52L1983.17 7416.34L1925.44 7652.18L1876.85 7792.88L1839.6 7962.8L1798.27 8111.22L1767.83 8306.38L1759.48 8401.38L1767.83 8447.66L1809.72 8514.15L1850.5 8572.68L1918.41 8646.85L1961.45 8696.03L2011.67 8707.12L2075.86 8731.02L2117.39 8776.46L2105.56 8815.61H2018.65H1798.27H1600.94L1448.6 8811.56L1424.64 8796.73L1415.02 8766.12L1424.64 8715.77L1458.58 8655.28L1479.01 8560.48L1458.58 8465.62L1463.56 8422.47L1479.01 8362.86L1495.37 8253.11L1504.99 8111.22L1511.33 7916.4L1504.99 7722.9L1485.12 7578.52L1472.79 7451.16L1448.6 7354.61L1424.64 7268.86L1415.02 7189.57L1400.49 7026.27V6898.36L1424.64 6769.12L1458.58 6649.38L1495.37 6566.16V6488.14L1472.79 6415.55L1463.56 6299.68V6176.96V6116.32L1495.37 6056.44L1504.99 6000.57L1495.37 5934.22L1472.79 5859.79L1458.58 5806.3L1453.4 5707.95L1448.6 5640.94L1442.89 5501.11L1435.93 5337.66L1429.45 5187.52L1424.64 4972.74V4790.87V4758.16V4732.17L1415.02 4723.76H1394.97" stroke="black" stroke-width="5" stroke-miterlimit="10" stroke-linejoin="round"/>
<path id="Vector_4" d="M736.064 3552.63L758.072 3614.34L794.172 3700.29" stroke="black" stroke-width="5" stroke-miterlimit="10" stroke-linejoin="round"/>
<path id="Vector_5" d="M2052.65 3552.63L2029.49 3592.57L1982.62 3700.29" stroke="black" stroke-width="5" stroke-miterlimit="10" stroke-linejoin="round"/>
<path id="Vector_6" d="M1673.77 1234.05L1648.31 1392.54" stroke="black" stroke-width="5" stroke-miterlimit="10" stroke-linejoin="round"/>
<path id="Vector_7" d="M1079.19 1246.6L1105.52 1392.54" stroke="black" stroke-width="5" stroke-miterlimit="10" stroke-linejoin="round"/>
<path id="Vector_8" d="M1241.99 1590.9L1285.68 1598.62L1310.65 1613.26L1327.29 1636.42L1343.41 1668.34" stroke="black" stroke-width="5" stroke-miterlimit="10" stroke-linejoin="round"/>
<path id="Vector_9" d="M1424.67 1668.34L1433.46 1639.64L1450.92 1612.08L1473.32 1590.9H1499.66H1521.91" stroke="black" stroke-width="5" stroke-miterlimit="10" stroke-linejoin="round"/>
<path id="Vector_10" d="M2231.82 1915.9L2271.82 1993.12L2287.81 2061.57L2257.94 2182.23L2224.01 2311.71L2152.45 2389.91L2104.5 2442.69L2005.1 2465.86H1884.9L1771 2442.69" stroke="black" stroke-width="5" stroke-miterlimit="10" stroke-linejoin="round"/>
<path id="Vector_11" d="M541.385 1908.54L509.316 1975.76L489.895 2031.23V2086L498.635 2176.16L530.342 2263.79L562.51 2341.31L609.107 2405.64L696.306 2451.33L794.172 2465.86L890.172 2458.89L985.778 2440.16" stroke="black" stroke-width="5" stroke-miterlimit="10" stroke-linejoin="round"/>
<path id="Vector_12" d="M1343.41 3362.33L1371.92 3336.18H1401.86L1424.67 3349.53L1433.49 3362.33" stroke="black" stroke-width="5" stroke-miterlimit="10" stroke-linejoin="round"/>
<path id="Vector_13" d="M1591.72 6016.86H1638.39L1673.77 5999.39L1700.17 5970.72L1718.79 5943.29" stroke="black" stroke-width="5" stroke-miterlimit="10" stroke-linejoin="round"/>
<path id="Vector_14" d="M1795.72 5980.07L1826.34 6016.86L1870.22 6029.41" stroke="black" stroke-width="5" stroke-miterlimit="10" stroke-linejoin="round"/>
<path id="Vector_15" d="M1572.48 6131.71V6207.19V6267.44V6332.98V6379.11L1591.72 6402.53L1612.5 6415.7H1648.32" stroke="black" stroke-width="5" stroke-miterlimit="10" stroke-linejoin="round"/>
<path id="Vector_16" d="M1740.88 6442.59L1783.25 6431.83L1817.87 6403.22L1845.34 6366.71L1860.06 6319.4L1870.22 6255.1L1860.06 6194.59" stroke="black" stroke-width="5" stroke-miterlimit="10" stroke-linejoin="round"/>
<path id="Vector_17" d="M1233.78 6131.71L1241.99 6273.7V6333.42L1233.78 6376.07L1214.54 6401.9L1179.48 6415.7" stroke="black" stroke-width="5" stroke-miterlimit="10" stroke-linejoin="round"/>
<path id="Vector_18" d="M1046.49 6434.6L999.721 6415.7L967.515 6381.35L941.304 6327.98V6273.7V6194.59" stroke="black" stroke-width="5" stroke-miterlimit="10" stroke-linejoin="round"/>
<path id="Vector_19" d="M1092.36 5958.28L1128.73 5993.06L1162.8 6016.86H1194.84H1225.05" stroke="black" stroke-width="5" stroke-miterlimit="10" stroke-linejoin="round"/>
<path id="Vector_20" d="M1016.27 5980.07L985.778 6004.73L958.692 6016.86H941.304" stroke="black" stroke-width="5" stroke-miterlimit="10" stroke-linejoin="round"/>
<path id="Vector_21" d="M1958.7 8692.94H1832.98" stroke="black" stroke-width="5" stroke-miterlimit="10" stroke-linejoin="round"/>
<path id="Vector_22" d="M833.035 8692.94H978.79" stroke="black" stroke-width="5" stroke-miterlimit="10" stroke-linejoin="round"/>
</g>
<g id="side">
<path id="Vector_23" d="M3499.77 983.398L3508.17 1137.55V1263.87L3489.26 1352.41L3453.93 1453.58L3393 1563.58L3335.76 1651.74L3284.65 1754.19L3243.78 1864.48L3223.51 1988.46L3207.76 2116.7L3192.87 2362.9L3207.76 2482.95L3243.78 2562.77L3320.65 2679.46L3382.44 2766.54L3430.45 2850.93L3499.77 2978.25L3548.76 3081.23L3591.51 3220.28L3603.92 3323.73V3387.11L3624.85 3436.42L3614.5 3458.16L3603.92 3491.31V3547.81V3618.16L3591.51 3690.71L3548.76 3750.79L3472.61 3870.26L3422.3 3962.51L3372 4084.53L3335.76 4217.91L3314.37 4328.73L3308.54 4466.52L3320.65 4565.15L3347.18 4620.2L3393 4702.9L3446.32 4770.85L3481.45 4860.7V4997.28L3472.61 5246.29V5578.91L3513.71 5947.77L3524.95 6048.92L3533.21 6182.96L3508.17 6304.63L3489.26 6381.51L3464.93 6442.67L3430.45 6509.24L3347.18 6638.12L3284.65 6770.45L3250.97 6861.9L3223.51 6932.65L3207.76 7040.84V7205.37L3223.51 7347.84L3264.6 7467.95L3327.87 7640.25L3393 7758.83L3446.32 7895.07L3499.77 8029.39L3543.11 8203.35L3566.99 8353.39L3578.82 8430.08V8446.32L3566.99 8462.55L3548.76 8484.48L3533.21 8521.45L3519.42 8574.82L3508.17 8627.23L3513.71 8682.59L3543.11 8732.3L3578.82 8767.08L3614.5 8777.1H3687.67L3753.02 8767.08H4085.65L4222.09 8791.82L4330.22 8805.16L4423.62 8815.61L4468.65 8805.16L4520.37 8799.29L4574.26 8805.16L4599.1 8791.82L4621.54 8755.88L4628.05 8719.18L4621.54 8691.87L4612.84 8673.95L4564.15 8664.45H4505.29L4423.62 8657.52L4236.97 8553.32L4085.65 8439.2L3918.75 8311.81L3862.64 8210.32L3849.4 8123.07L3829.43 7968.12L3812.16 7844.01V7650.76L3820.5 7450.54L3849.4 7272.84L3879.19 7118.27L3888.93 6932.65L3899.44 6747.56L3905.29 6653.08L3928.59 6609.42L3949.73 6577.1L3984.19 6534.31L4003.23 6462.62L4030.54 6416.01L4061.44 6381.51L4075.15 6342.22L4085.65 6282.61L4075.15 6168.87L4061.44 6109.24L4075.15 6072.01L4131.38 5982.41L4178.77 5853.67L4222.09 5725.38L4258.71 5604.03L4298.93 5438.12L4344.03 5283.04L4367.97 5169.62V5128.06L4377.16 5111.51L4390.49 5128.06H4423.62L4462.88 5139.26L4520.37 5184.89H4574.26L4612.84 5179.01L4656.31 5196.35L4708.73 5184.89L4742.99 5145.97L4756.38 5074.13L4770.89 4990.92L4800.99 4940.03V4872.45L4770.89 4820L4747.94 4754.9L4718.93 4709.02L4644.17 4607.11L4539.02 4452.77L4462.88 4322.78L4423.62 4248.42V4229.57L4437.61 4205.42L4474.15 4121.48L4498.16 4020.6L4528.27 3906.16L4564.15 3750.79L4579.81 3576.08L4574.26 3484.22L4564.15 3468.21L4551.45 3444.29L4558.14 3410.03L4579.81 3381.49L4591.23 3246.34L4579.81 3163.56L4564.15 3127.65V3094.52L4574.26 3081.23V2955.65V2803.57V2745.68L4591.23 2705.4L4599.1 2637.66L4585.46 2592.24L4558.14 2517.98L4528.27 2420.88L4515.18 2367.81L4520.37 2340.64L4539.02 2323.42V2202.96L4528.27 2129.01L4498.16 2067.74L4462.88 1971.53L4390.49 1864.48L4312.73 1754.19L4250.8 1686.88L4154.05 1615.31L4061.44 1520.28L4048.53 1476.3V1453.58L4061.44 1430.33L4091.38 1376.88V1323.95L4080.06 1295.6V1263.87L4085.65 1225.12L4105.04 1193.61L4122.27 1185.67H4173.86L4323.73 1178.14L4357.95 1153.01L4367.97 1114.2V1073.74L4352.32 1041.86L4330.22 1009.74V983.398L4344.03 949.145L4357.95 915.5L4363.49 902.955L4357.95 888.895L4363.49 870.376L4372.47 859.293L4363.49 834.021L4352.32 806.521V792.706V783.874H4357.95H4372.47L4412.65 778.614L4423.62 766.166V749.61V728.915L4412.65 710.908L4390.49 676.057L4352.32 627.947L4323.73 590.621L4307.69 556.838V527.651L4323.73 502.305L4330.22 488.544L4335.55 438.258L4330.22 422.385L4312.73 390.766L4307.69 376.408L4271.11 289.894L4242.35 217.964L4187.47 163.335L4116.07 117.785L4030.54 89.1539L3928.59 71.4671L3820.5 63.0078L3687.67 71.4671L3578.82 102.435L3458.73 180.83L3393 284.817L3353.92 400.25L3335.76 521.955L3341.7 655.586L3401.03 792.706L3453.93 888.895L3489.26 929.986L3499.77 949.145V983.398Z" stroke="black" stroke-width="5" stroke-miterlimit="10" stroke-linejoin="round"/>
<path id="Vector_24" d="M3626.82 3437.56L3648.93 3503.72L3667.03 3602.32L3688.53 3690.78L3753.23 3836.14L3820.28 3975.97L3969.25 4184.64L4113.31 4371.05L4209.91 4506.23L4273.54 4601.36L4310.32 4670.5V4722.7V4762.96L4292.52 4813.98V4858.78L4321.54 4908.54L4310.32 4960.28V4990.22V5028.13L4337.66 5077.42L4383.97 5117.75" stroke="black" stroke-width="5" stroke-miterlimit="10" stroke-linejoin="round"/>
<path id="Vector_25" d="M4424.8 4239.22L4363.61 4131.9L4318.63 3991.36L4279.37 3781.54L4243.04 3602.54L4174.73 3437.56L4093.75 3316.85L4026.95 3203.91L4005.4 3126.89L4026.95 3075.51L4042.53 2957.04V2753.58L4026.95 2606.63L3996.94 2458.31L3970.88 2353.69V2308.53L3996.94 2269.45L4026.95 2212.8L4069.28 2176.83H4093.75L4114.42 2212.8" stroke="black" stroke-width="5" stroke-miterlimit="10" stroke-linejoin="round"/>
<path id="Vector_26" d="M3546.09 1624.16L3488.84 1664.22L3400.27 1741.66L3324.65 1866.29L3291.04 2006.71V2086.49L3324.65 2219.03L3368.36 2328.26L3413.86 2421.17L3445.31 2479.8V2565.18V2686.8L3430.19 2757.76V2815.03L3445.31 2881.66" stroke="black" stroke-width="5" stroke-miterlimit="10" stroke-linejoin="round"/>
<path id="Vector_27" d="M3679.55 8381.72V8447.62L3685.98 8504.93L3704.85 8527.72L3772.34 8549.75" stroke="black" stroke-width="5" stroke-miterlimit="10" stroke-linejoin="round"/>
<path id="Vector_28" d="M3615.49 3242.15L3608.31 3318.75V3391L3629.75 3434.51L3672.67 3491.8L3725.94 3543.92" stroke="black" stroke-width="5" stroke-miterlimit="10" stroke-linejoin="round"/>
<path id="Vector_29" d="M3782.8 3349.25L3791.66 3384.84V3414.23L3782.8 3460.64" stroke="black" stroke-width="5" stroke-miterlimit="10" stroke-linejoin="round"/>
<path id="Vector_30" d="M4223.45 2299.65L4257.99 2341.23L4305.06 2376.06L4335.92 2399.87L4370.94 2410.5H4418.94L4460.88 2395.19L4485.73 2376.06L4517.89 2353.54" stroke="black" stroke-width="5" stroke-miterlimit="10" stroke-linejoin="round"/>
<path id="Vector_31" d="M4471.66 2759.37L4418.53 2818.79L4361.93 2906.83L4338.9 2973.29L4330.2 3014.43" stroke="black" stroke-width="5" stroke-miterlimit="10" stroke-linejoin="round"/>
<path id="Vector_32" d="M4315.07 3349.25L4330.2 3430.23L4341.8 3496.51V3552.63V3626.46" stroke="black" stroke-width="5" stroke-miterlimit="10" stroke-linejoin="round"/>
<path id="Vector_33" d="M3804.7 638.497L3774.26 607.945L3742.16 598.174L3696.63 607.945L3648.85 638.497L3615.49 685.658V736.168L3636.92 786.561L3669.72 840.059L3708.58 876.638L3759.64 907.776" stroke="black" stroke-width="5" stroke-miterlimit="10" stroke-linejoin="round"/>
<path id="Vector_34" d="M3832.92 970.17L3838.42 1040.07L3861.04 1072.58L3901.34 1107.04L3938.02 1131.42L3966.88 1141.21" stroke="black" stroke-width="5" stroke-miterlimit="10" stroke-linejoin="round"/>
</g>
<g id="back">
<path id="Vector_35" d="M5277.47 3202.69L5257.64 3254.94V3304.41L5267.48 3336.18L5303.77 3383.3" stroke="black" stroke-width="5" stroke-miterlimit="10" stroke-linejoin="round"/>
<path id="Vector_36" d="M5411.78 3373.6L5437.36 3336.17L5449.97 3293V3242.15L5444.49 3226.25" stroke="black" stroke-width="5" stroke-miterlimit="10" stroke-linejoin="round"/>
<path id="Vector_37" d="M5932.65 3257.87L5875 3133.48" stroke="black" stroke-width="5" stroke-miterlimit="10" stroke-linejoin="round"/>
<path id="Vector_38" d="M7157.82 3257.87L7215.35 3133.48" stroke="black" stroke-width="5" stroke-miterlimit="10" stroke-linejoin="round"/>
<path id="Vector_39" d="M7633.53 3226.25L7623.29 3267.66V3299.92L7647.49 3336.17L7673.42 3362.33" stroke="black" stroke-width="5" stroke-miterlimit="10" stroke-linejoin="round"/>
<path id="Vector_40" d="M7801.12 3195.67L7827.56 3257.87V3299.92L7801.12 3349.25L7775.42 3373.6" stroke="black" stroke-width="5" stroke-miterlimit="10" stroke-linejoin="round"/>
<path id="Vector_41" d="M6541.2 991.25L6546.29 1273.98" stroke="black" stroke-width="5" stroke-miterlimit="10" stroke-linejoin="round"/>
<path id="Vector_42" d="M6801.83 991.25L6820.21 1084.14" stroke="black" stroke-width="5" stroke-miterlimit="10" stroke-linejoin="round"/>
<path id="Vector_43" d="M6287.65 970.17L6268.19 1060.81" stroke="black" stroke-width="5" stroke-miterlimit="10" stroke-linejoin="round"/>
<path id="Vector_44" d="M5562.43 2176.59L5578.85 2275.72L5621.46 2370.59L5642.08 2465.86V2531.12L5660.59 2603.32L5678.9 2691.56" stroke="black" stroke-width="5" stroke-miterlimit="10" stroke-linejoin="round"/>
<path id="Vector_45" d="M7522.38 2176.59L7510.26 2282.61L7487.48 2329.58L7463.13 2376.28L7451.74 2448.35L7431.55 2562.81L7417.87 2619.16L7413.38 2691.56" stroke="black" stroke-width="5" stroke-miterlimit="10" stroke-linejoin="round"/>
<path id="Vector_46" d="M6543.75 2625.29L6541.2 3441.34" stroke="black" stroke-width="5" stroke-miterlimit="10" stroke-linejoin="round"/>
<path id="Vector_47" d="M6338.33 6263.14L6328.67 6386.45" stroke="black" stroke-width="5" stroke-miterlimit="10" stroke-linejoin="round"/>
<path id="Vector_48" d="M6099.06 6167.38L6082.03 6211.37L6070.62 6364.59" stroke="black" stroke-width="5" stroke-miterlimit="10" stroke-linejoin="round"/>
<path id="Vector_49" d="M6744.47 6265.98L6754.29 6364.59" stroke="black" stroke-width="5" stroke-miterlimit="10" stroke-linejoin="round"/>
<path id="Vector_50" d="M6994.6 6194.59L7007.4 6249.26V6315.28V6364.59" stroke="black" stroke-width="5" stroke-miterlimit="10" stroke-linejoin="round"/>
<path id="Vector_51" d="M6662.45 6527.61L6630.93 6668.8" stroke="black" stroke-width="5" stroke-miterlimit="10" stroke-linejoin="round"/>
<path id="Vector_52" d="M7043.16 6434.6L7078.86 6510.01" stroke="black" stroke-width="5" stroke-miterlimit="10" stroke-linejoin="round"/>
<path id="Vector_53" d="M6419.95 6527.61L6462.97 6668.8" stroke="black" stroke-width="5" stroke-miterlimit="10" stroke-linejoin="round"/>
<path id="Vector_54" d="M6046.74 6415.7L6012.49 6510.01" stroke="black" stroke-width="5" stroke-miterlimit="10" stroke-linejoin="round"/>
<path id="Vector_55" d="M6833.1 8597.89L6853.93 8647.92L6868.84 8692.94L6853.93 8731.45L6820.22 8779.77L6773.77 8815.61" stroke="black" stroke-width="5" stroke-miterlimit="10" stroke-linejoin="round"/>
<path id="Vector_56" d="M6252.9 8597.89L6230.08 8659.76V8720.67L6252.9 8758.76L6287.65 8790.76L6313.92 8815.61" stroke="black" stroke-width="5" stroke-miterlimit="10" stroke-linejoin="round"/>
<path id="Vector_57" d="M7186.58 4570.99L7132.63 4654.42L7078.86 4722.08L7001 4764.6L6930.66 4795.28H6811.02H6701.39L6646.69 4764.6L6548.8 4678.23L6462.97 4764.6L6376.73 4795.28H6268.19H6137.59L6046.74 4742.09L5962.9 4678.23L5932.65 4639.89L5903.83 4570.99" stroke="black" stroke-width="5" stroke-miterlimit="10" stroke-linejoin="round"/>
<path id="Vector_58" d="M6270.39 1054.27V1122.14L6255.31 1215.28L6234.29 1273.72L6173.41 1317.74L6039.65 1389.56L5959.75 1436.8L5860.03 1509.26H5792.14L5679.3 1527.78L5575.49 1573.31L5510.49 1619.36L5413.1 1708.6L5359.83 1762.87L5308.73 1831.02L5276.33 1911.78L5263.64 2026.17V2122.75L5276.33 2213.14L5293.97 2341.61V2374.57L5276.33 2409.58L5219.71 2552.89L5180.84 2686.49L5168.34 2796.09V2903.13L5180.84 3075.99V3205.19L5154.89 3279.87L5108.55 3465.24L5099.92 3590.82L5108.55 3727.44L5147.88 3919L5193.38 4057.05L5254.58 4232.54L5316.44 4365.6L5331.98 4450.87L5349.24 4544.17L5386.38 4598.14L5396.22 4639.77V4751.07L5386.38 4915.55L5396.22 4989.03L5432.66 5030.83L5482.4 5097.88L5520.28 5158.35L5583.37 5166.43L5644.11 5134.91L5712.34 5089.46L5729.62 5017.31V4904.59M5729.62 4904.59V4727.23M5729.62 4904.59L5740.38 5030.83L5748.14 5125.13L5757.74 5271.13L5778.22 5404.76L5817.15 5580.74L5860.03 5734.6L5905.7 5871.9L5959.75 5986.83V6040.13L5968.21 6159.59V6286.82L5977.77 6374.25L6014.3 6465.86V6507.23L5993.67 6563.62L5959.75 6669.54L5920.66 6816.24L5905.7 7055.57V7196.06L5920.66 7322.34L5959.75 7513.84L6053.73 7806.14L6129.26 8055.88L6183.07 8266.79V8474.46L6139.48 8541.83L6039.65 8647.07L5977.77 8703.07L5936.64 8755.98L5942.94 8804.31L5993.67 8815.61H6105.49H6203.47H6392.08H6453.56L6514.57 8750.22L6507.01 8688.03L6480.89 8596.61L6467.36 8528.82L6435.35 8252.98L6425.65 8064.41V7752.13L6444.49 7659.97L6467.36 7549.38L6507.01 7387.53L6514.57 7309.81L6535.62 7145.81L6514.57 6931.73L6467.36 6769.46L6460.8 6617.71L6480.89 6563.62L6486.67 6393.01L6467.36 6243.99L6453.56 6145.59L6460.8 5948.77L6480.89 5871.9L6507.01 5723.94V5588.54L6520.73 5428.52V5249.9L6535.62 5089.46L6546.29 4792.36M5729.62 4727.23L5701.69 4619.15L5665.9 4566.67L5621.73 4486.29V4365.6L5598.75 4203.21L5583.37 4104.05L5598.75 4020.11L5644.11 3833.75L5665.9 3645.48V3413.15L5644.11 3279.87L5598.75 3179.41L5583.37 3144.76L5598.75 3075.99L5644.11 3009.71L5665.9 2842.23L5679.3 2760.61M5729.62 4727.23L5721 4619.15L5712.34 4526.82L5701.69 4470.1V4383.38L5712.34 4282.77L5740.38 4215.08L5764.78 4171.31L5778.22 4143.59L5786.18 4067.25V3996.9L5802.99 3862.56L5830.04 3736.59L5860.03 3676.51L5884.4 3645.48L5892.37 3604.64L5884.4 3535.01L5875.66 3375.87V3214.95V3134.43L5830.04 3063.65L5748.14 2903.13L5701.69 2808.16L5679.3 2760.61M5679.3 2760.61V2686.49" stroke="black" stroke-width="5" stroke-miterlimit="10" stroke-linejoin="round"/>
<path id="Vector_59" d="M6822.19 1054.27V1122.14L6837.27 1215.28L6858.28 1273.72L6919.16 1317.74L7052.93 1389.56L7132.84 1436.8L7232.54 1509.26H7300.44L7413.27 1527.78L7517.09 1573.31L7582.08 1619.36L7679.47 1708.6L7732.74 1762.87L7783.84 1831.02L7816.24 1911.78L7828.93 2026.17V2122.75L7816.24 2213.14L7798.62 2341.61V2374.57L7816.24 2409.58L7872.86 2552.89L7911.73 2686.49L7924.24 2796.09V2903.13L7911.73 3075.99V3205.19L7937.68 3279.87L7984.02 3465.24L7992.66 3590.82L7984.02 3727.44L7944.69 3919L7899.2 4057.05L7837.99 4232.54L7776.14 4365.6L7760.6 4450.87L7743.33 4544.17L7706.2 4598.14L7696.35 4639.77V4751.07L7706.2 4915.55L7696.35 4989.03L7659.91 5030.83L7610.17 5097.88L7572.3 5158.35L7509.2 5166.43L7448.47 5134.91L7380.23 5089.46L7362.96 5017.31V4904.59M7362.96 4904.59V4727.23M7362.96 4904.59L7352.19 5030.83L7344.43 5125.13L7334.83 5271.13L7314.35 5404.76L7275.43 5580.74L7232.54 5734.6L7186.87 5871.9L7132.84 5986.83V6040.13L7124.37 6159.59V6286.82L7114.8 6374.25L7078.28 6465.86V6507.23L7098.9 6563.62L7132.84 6669.54L7171.91 6816.24L7186.87 7055.57V7196.06L7171.91 7322.34L7132.84 7513.84L7038.84 7806.14L6963.32 8055.88L6909.5 8266.79V8474.46L6953.09 8541.83L7052.93 8647.07L7114.8 8703.07L7155.93 8755.98L7149.63 8804.31L7098.9 8815.61H6987.09H6889.1H6700.49H6639.02L6578 8750.22L6585.58 8688.03L6611.69 8596.61L6625.21 8528.82L6657.23 8252.98L6666.92 8064.41V7752.13L6648.09 7659.97L6625.21 7549.38L6585.58 7387.53L6578 7309.81L6556.95 7145.81L6578 6931.73L6625.21 6769.46L6631.77 6617.71L6611.69 6563.62L6605.91 6393.01L6625.21 6243.99L6639.02 6145.59L6631.77 5948.77L6611.69 5871.9L6585.58 5723.94V5588.54L6571.86 5428.52V5249.9L6556.95 5089.46L6546.29 4792.36M7362.96 4727.23L7390.88 4619.15L7426.68 4566.67L7470.85 4486.29V4365.6L7493.82 4203.21L7509.2 4104.05L7493.82 4020.11L7448.47 3833.75L7426.68 3645.48V3413.15L7448.47 3279.87L7493.82 3179.41L7509.2 3144.76L7493.82 3075.99L7448.47 3009.71L7426.68 2842.23L7413.27 2760.61M7362.96 4727.23L7371.57 4619.15L7380.23 4526.82L7390.88 4470.1V4383.38L7380.23 4282.77L7352.19 4215.08L7327.8 4171.31L7314.35 4143.59L7306.39 4067.25V3996.9L7289.59 3862.56L7262.53 3736.59L7232.54 3676.51L7208.17 3645.48L7200.2 3604.64L7208.17 3535.01L7216.91 3375.87V3214.95V3134.43L7262.53 3063.65L7344.43 2903.13L7390.88 2808.16L7413.27 2760.61M7413.27 2760.61V2686.49" stroke="black" stroke-width="5" stroke-miterlimit="10" stroke-linejoin="round"/>
<path id="Vector_60" d="M6272.88 1060.81L6240.58 1002.62L6231.75 932.728L6204.92 892.938H6158.14L6122.06 841.574L6090.21 763.616V638.807L6113.52 590.835L6135.2 569.02L6122.06 415.163L6135.2 315.08L6204.92 168.531L6278.86 96.0452L6392.49 26.4078L6505.06 3.33398L6589.83 10.9293L6678.82 26.4078L6796.45 77.6331L6853.62 133.904L6933.33 261.466L6961.43 386.883V529.198L6952.19 590.835H6980.57L7007.4 604.991V649.901L7000.93 722.578V775.681L6980.57 832.72L6952.19 885.46L6907.68 892.938L6873.82 900.352V922.786L6866.45 981.67L6853.62 1010.89L6821.77 1060.81" stroke="black" stroke-width="5" stroke-miterlimit="10" stroke-linejoin="round"/>
<path id="Vector_61" d="M6953.26 579.379L6932.14 643.224L6901.77 721.779L6864.2 775.287L6833.1 818.65" stroke="black" stroke-width="5" stroke-miterlimit="10" stroke-linejoin="round"/>
<path id="Vector_62" d="M6893.18 818.65V859.187L6904.73 892.342" stroke="black" stroke-width="5" stroke-miterlimit="10" stroke-linejoin="round"/>
<path id="Vector_63" d="M6202.89 892.341L6210.44 864.531V829.531" stroke="black" stroke-width="5" stroke-miterlimit="10" stroke-linejoin="round"/>
<path id="Vector_64" d="M6419.95 892.341L6546.29 860.936L6662.45 892.341" stroke="black" stroke-width="5" stroke-miterlimit="10" stroke-linejoin="round"/>
<path id="Vector_65" d="M6137.59 566.705L6160.1 654.189L6190.15 732.126L6242.23 812.516L6268.19 840.059" stroke="black" stroke-width="5" stroke-miterlimit="10" stroke-linejoin="round"/>
</g>
</g>
<g id="muscles">
<g id="pantorrilla&#39;nt">
<path id="Vector_66" d="M3790.71 6632.94C3728.5 6672.16 3697.74 7088.21 3697.74 7222.15C3697.74 7356.08 3714.47 7965.95 3737.71 7953.31C3760.95 7940.66 3760.87 7483.7 3790.71 7171.57C3820.53 6859.44 3852.9 6593.7 3790.71 6632.94Z" stroke="black" stroke-width="5" stroke-miterlimit="10" stroke-linejoin="round"/>
<path id="Vector_67" d="M3546.47 6566.68C3452.52 6693.37 3463.25 6996.17 3463.25 7235.71C3463.25 7352.77 3505.99 7578.11 3551.8 7785.35C3599.74 8002.19 3652.05 8199.21 3709.04 8231.65C3768.46 8265.48 3722.54 8090.92 3687.71 7861.58C3657.19 7660.57 3640.42 7417.48 3640.42 7235.71C3640.42 6846.52 3709.04 6740.52 3709.04 6674.94C3709.04 6609.35 3640.42 6440.01 3546.47 6566.68Z" stroke="black" stroke-width="5" stroke-miterlimit="10" stroke-linejoin="round"/>
<path id="Vector_68" d="M921.397 6490.34C1011.96 6379.3 1124.49 6888.01 1115.84 7034.85C1111.34 7111.17 1080.21 7453.95 1115.84 7778.46C1148.72 8077.94 1197.6 8366.81 1167.48 8418.92C1104.79 8527.43 1059.15 8196.59 969.648 7878.01C880.155 7559.42 841.495 7344.92 820.159 7155.26C798.824 6965.62 830.827 6601.39 921.397 6490.34Z" stroke="black" stroke-width="5" stroke-miterlimit="10" stroke-linejoin="round"/>
<path id="Vector_69" d="M1869.4 6490.34C1778.84 6379.3 1666.3 6888.01 1674.95 7034.85C1679.45 7111.17 1710.58 7453.95 1674.95 7778.46C1642.07 8077.94 1593.19 8366.81 1623.31 8418.92C1686 8527.43 1731.64 8196.59 1821.14 7878.01C1910.64 7559.42 1949.3 7344.92 1970.63 7155.26C1991.97 6965.62 1959.97 6601.39 1869.4 6490.34Z" stroke="black" stroke-width="5" stroke-miterlimit="10" stroke-linejoin="round"/>
</g>
<g id="neck">
<path id="Vector_70" d="M6478.72 975.92C6500.52 1005.66 6488.85 1347.06 6478.72 1377.75C6465.1 1418.98 6370.52 1429.19 6258.42 1443.79C6114.26 1462.55 5960.37 1507.14 5969.48 1494.88C5985.98 1472.67 6274.26 1344.81 6303.89 1297.02C6333.52 1249.24 6311.8 1006.39 6333.52 975.92C6355.24 945.454 6456.91 946.19 6478.72 975.92Z" stroke="black" stroke-width="5" stroke-miterlimit="10" stroke-linejoin="round"/>
<path id="Vector_71" d="M6610.85 975.92C6589.04 1005.66 6600.71 1347.06 6610.85 1377.75C6624.47 1418.98 6719.05 1429.19 6831.14 1443.79C6975.32 1462.55 7129.21 1507.14 7120.09 1494.88C7103.59 1472.67 6815.31 1344.81 6785.68 1297.02C6756.05 1249.24 6777.77 1006.39 6756.05 975.92C6734.33 945.454 6632.65 946.19 6610.85 975.92Z" stroke="black" stroke-width="5" stroke-miterlimit="10" stroke-linejoin="round"/>
<path id="Vector_72" d="M3782.41 1062.75C3750.13 1031.81 3779.61 1143.29 3804.02 1207.67C3828.44 1272.05 3957.14 1497.43 3984.19 1532.43C4011.23 1567.42 3992.3 1372.82 3984.19 1334.95C3976.07 1297.09 3878 1174.51 3878 1174.51C3878 1174.51 3814.69 1093.69 3782.41 1062.75Z" stroke="black" stroke-width="5" stroke-miterlimit="10" stroke-linejoin="round"/>
<path id="Vector_73" d="M1126.13 1188.21C1102.42 1177.73 1142.18 1378.06 1160.16 1417.33C1178.15 1456.6 1286.23 1573.92 1314.9 1567.42C1343.58 1560.94 1290.38 1471.93 1264.2 1391.38C1238.03 1310.83 1250.77 1301.4 1210.21 1245.22C1183.47 1208.18 1149.85 1198.7 1126.13 1188.21Z" stroke="black" stroke-width="5" stroke-miterlimit="10" stroke-linejoin="round"/>
<path id="Vector_74" d="M1036.86 1377.16C1054.37 1402.74 1083.21 1476.95 1083.21 1503C1083.21 1529.05 806.867 1507.98 845.133 1476.95C883.398 1445.93 1019.33 1351.57 1036.86 1377.16Z" stroke="black" stroke-width="5" stroke-miterlimit="10" stroke-linejoin="round"/>
<path id="Vector_75" d="M1698.61 1377.16C1681.09 1402.74 1652.25 1476.95 1652.25 1503C1652.25 1529.05 1928.59 1507.98 1890.33 1476.95C1852.06 1445.93 1716.13 1351.57 1698.61 1377.16Z" stroke="black" stroke-width="5" stroke-miterlimit="10" stroke-linejoin="round"/>
<path id="Vector_76" d="M1614.51 1188.21C1638.22 1177.73 1598.46 1378.06 1580.48 1417.33C1562.48 1456.6 1454.42 1573.92 1425.74 1567.42C1397.07 1560.94 1450.27 1471.93 1476.43 1391.38C1502.61 1310.83 1489.88 1301.4 1530.43 1245.22C1557.17 1208.18 1590.79 1198.7 1614.51 1188.21Z" stroke="black" stroke-width="5" stroke-miterlimit="10" stroke-linejoin="round"/>
<path id="Vector_77" d="M3555.92 962.928C3530.44 983.612 3576.91 1276.88 3555.92 1372.81C3534.92 1468.74 3413.25 1675.65 3484.58 1609.72C3514.37 1582.19 3573.01 1532.75 3629.64 1514.76C3708.67 1489.63 3778.1 1502.79 3771.28 1483.71C3759.62 1451.12 3687.06 1057.77 3675.47 1037.71C3663.89 1017.64 3581.39 942.254 3555.92 962.928Z" stroke="black" stroke-width="5" stroke-miterlimit="10" stroke-linejoin="round"/>
</g>
<g id="lower_back">
<path id="Vector_78" d="M6620.77 2873.34C6603.57 2923.64 6605.82 3093.87 6606.96 3267.5C6608.59 3513.19 6618.69 3765.66 6660.84 3694.63C6732.77 3573.41 6922.85 3480.35 6955.35 3456.96C6987.85 3433.57 7005.59 3320.4 6955.85 3320.4C6906.1 3320.4 6827.01 3208.69 6827.01 3208.69C6827.01 3208.69 6662.32 2751.85 6620.77 2873.34Z" stroke="black" stroke-width="5" stroke-miterlimit="10" stroke-linejoin="round"/>
<path id="Vector_79" d="M6460.17 2873.34C6477.37 2923.64 6475.13 3093.87 6473.98 3267.5C6472.36 3513.19 6462.25 3765.66 6420.1 3694.63C6348.17 3573.41 6158.09 3480.35 6125.6 3456.96C6093.09 3433.57 6075.35 3320.4 6125.1 3320.4C6174.85 3320.4 6253.93 3208.69 6253.93 3208.69C6253.93 3208.69 6418.63 2751.85 6460.17 2873.34Z" stroke="black" stroke-width="5" stroke-miterlimit="10" stroke-linejoin="round"/>
<path id="Vector_80" d="M6743.06 3750.63C6807.17 3809.39 6802.15 3774.63 6916.67 3894.92C7031.18 4015.2 7126.19 4166.77 7179.8 4210.43C7233.41 4254.09 7249.19 4069.11 7233.41 3923.43C7217.62 3777.75 7154.98 3668.71 7116.67 3627.72C7078.38 3586.71 6970.8 3563.42 6927.34 3563.42C6883.87 3563.42 6678.96 3691.86 6743.06 3750.63Z" stroke="black" stroke-width="5" stroke-miterlimit="10" stroke-linejoin="round"/>
<path id="Vector_81" d="M6341.48 3750.63C6277.38 3809.39 6282.41 3774.63 6167.89 3894.92C6053.37 4015.2 5958.36 4166.77 5904.75 4210.43C5851.15 4254.09 5835.36 4069.11 5851.15 3923.43C5866.92 3777.75 5929.57 3668.71 5967.87 3627.72C6006.18 3586.71 6113.75 3563.42 6157.22 3563.42C6200.68 3563.42 6405.59 3691.86 6341.48 3750.63Z" stroke="black" stroke-width="5" stroke-miterlimit="10" stroke-linejoin="round"/>
</g>
<g id="obliques">
<path id="Vector_82" d="M4278.37 2425C4256.73 2442.24 4150.31 2481.66 4162.46 2496.72C4174.6 2511.77 4266.96 2671.68 4248.41 2686.32C4229.87 2700.98 4091.53 2730.4 4091.53 2762.55C4091.53 2794.71 4055.46 3132.79 4069.23 3168.94C4083.01 3205.08 4278.37 3585.2 4278.37 3552.77C4278.37 3520.34 4255.9 3297.1 4248.41 3157.51C4240.93 3017.91 4237.15 3019.04 4248.41 2994.4C4259.69 2969.77 4345.66 2859.12 4345.66 2830.25C4345.66 2801.39 4354.98 2558.08 4354.98 2527.4C4354.98 2496.72 4299.99 2407.77 4278.37 2425Z" stroke="black" stroke-width="5" stroke-miterlimit="10" stroke-linejoin="round"/>
<path id="Vector_83" d="M4104.69 2244.55C4117.99 2322.69 4160.38 2348.89 4225.21 2368.58C4290.05 2388.27 4071.59 2547.39 4026.66 2430.7C3981.71 2314.01 4091.39 2166.42 4104.69 2244.55Z" stroke="black" stroke-width="5" stroke-miterlimit="10" stroke-linejoin="round"/>
<path id="Vector_84" d="M1959.98 3208.76C1894 3286.72 1816.47 3376.87 1806.48 3412.53C1796.48 3448.19 1732.58 3728.72 1751.07 3780.17C1769.54 3831.63 1959.98 3583.65 1959.98 3530.54C1959.98 3477.41 2025.97 3130.81 1959.98 3208.76Z" stroke="black" stroke-width="5" stroke-miterlimit="10" stroke-linejoin="round"/>
<path id="Vector_85" d="M2161.29 2568.74C2105.98 2591.07 1877 2772.94 1841.3 2785.71C1823.59 2792.06 1836.7 2893.91 1833.97 3001.89C1831.19 3111.54 1812.76 3227.5 1817.14 3256.16C1825.86 3313.04 1967.11 3138.44 2059.08 2937.98C2103.26 2841.71 2186.19 2558.68 2161.29 2568.74Z" stroke="black" stroke-width="5" stroke-miterlimit="10" stroke-linejoin="round"/>
<path id="Vector_86" d="M1809.19 2525.24C1844.05 2593.1 1814.15 2720.14 1844.05 2746.97C1873.95 2773.8 2232.34 2422.12 2148.66 2452.91C2111.45 2466.59 2050.43 2475.82 1973.5 2482.57C1877.43 2491.01 1789.82 2487.57 1809.19 2525.24Z" stroke="black" stroke-width="5" stroke-miterlimit="10" stroke-linejoin="round"/>
<path id="Vector_87" d="M953.124 2525.24C918.261 2593.1 948.163 2720.14 918.261 2746.97C888.359 2773.8 529.966 2422.12 613.641 2452.91C650.85 2466.59 711.87 2475.82 788.796 2482.57C884.871 2491.01 972.475 2487.57 953.124 2525.24Z" stroke="black" stroke-width="5" stroke-miterlimit="10" stroke-linejoin="round"/>
<path id="Vector_88" d="M615.572 2568.74C670.895 2591.07 889.202 2772.94 924.897 2785.71C942.616 2792.06 929.505 2893.91 932.236 3001.89C935.01 3111.54 953.444 3227.5 949.049 3256.16C940.344 3313.04 809.759 3138.44 717.781 2937.98C673.605 2841.71 590.684 2558.68 615.572 2568.74Z" stroke="black" stroke-width="5" stroke-miterlimit="10" stroke-linejoin="round"/>
<path id="Vector_89" d="M806.281 3208.76C872.261 3286.72 949.785 3376.87 959.78 3412.53C969.776 3448.19 1033.68 3728.72 1015.2 3780.17C996.723 3831.63 806.281 3583.65 806.281 3530.54C806.281 3477.41 740.3 3130.81 806.281 3208.76Z" stroke="black" stroke-width="5" stroke-miterlimit="10" stroke-linejoin="round"/>
<path id="Vector_90" d="M4083.99 2493.24C4035.15 2456.07 4058.2 2670.34 4080.98 2697.99C4103.77 2725.63 4193.35 2686.32 4209.98 2658.49C4226.61 2630.65 4132.83 2530.42 4083.99 2493.24Z" stroke="black" stroke-width="5" stroke-miterlimit="10" stroke-linejoin="round"/>
<path id="Vector_91" d="M7039.69 3320.4C7010.86 3360.34 7018.86 3448.61 7039.69 3480.17C7060.52 3511.71 7078.38 3534.12 7116.68 3534.12C7154.98 3534.12 7154.98 3347.66 7154.98 3320.4C7154.98 3293.12 7068.51 3280.45 7039.69 3320.4Z" stroke="black" stroke-width="5" stroke-miterlimit="10" stroke-linejoin="round"/>
<path id="Vector_92" d="M6048.12 3320.4C6076.94 3360.34 6068.95 3448.61 6048.12 3480.17C6027.3 3511.71 6009.44 3534.12 5971.13 3534.12C5932.83 3534.12 5932.83 3347.66 5932.83 3320.4C5932.83 3293.12 6019.3 3280.45 6048.12 3320.4Z" stroke="black" stroke-width="5" stroke-miterlimit="10" stroke-linejoin="round"/>
</g>
<g id="calves">
<path id="Vector_93" d="M6349.62 6508.78C6210.12 6243.36 6207.62 7196.78 6228.69 7431.96C6249.76 7667.13 6389.84 7686.76 6417.41 7463.96C6444.97 7241.17 6489.12 6774.2 6349.62 6508.78Z" stroke="black" stroke-width="5" stroke-miterlimit="10" stroke-linejoin="round"/>
<path id="Vector_94" d="M6156.81 6445.77C6116.04 6368.2 6052.94 6577.62 6000.6 6813.81C5950.71 7038.96 5962.04 7290.4 5978.28 7333.05C6011.9 7421.38 6134.28 7454.49 6158.09 7378.27C6167.41 7348.47 6163.99 7219.09 6168.76 7063.6C6171.02 6990.12 6164.56 6912.77 6167.98 6838.12C6175.84 6666.66 6190.26 6509.39 6156.81 6445.77Z" stroke="black" stroke-width="5" stroke-miterlimit="10" stroke-linejoin="round"/>
<path id="Vector_95" d="M6924.33 6445.77C6965.1 6368.2 7028.19 6577.62 7080.54 6813.81C7130.44 7038.96 7119.11 7290.4 7102.87 7333.05C7069.24 7421.38 6946.85 7454.49 6923.05 7378.27C6913.74 7348.47 6917.15 7219.09 6912.38 7063.6C6910.12 6990.12 6916.59 6912.77 6913.16 6838.12C6905.3 6666.66 6890.89 6509.39 6924.33 6445.77Z" stroke="black" stroke-width="5" stroke-miterlimit="10" stroke-linejoin="round"/>
<path id="Vector_96" d="M6731.92 6508.78C6871.42 6243.36 6873.92 7196.78 6852.85 7431.96C6831.79 7667.13 6691.71 7686.76 6664.15 7463.96C6636.57 7241.17 6592.43 6774.2 6731.92 6508.78Z" stroke="black" stroke-width="5" stroke-miterlimit="10" stroke-linejoin="round"/>
<path id="Vector_97" d="M1616.44 6502.1C1635.31 6578.8 1595.91 6793.12 1595.1 7023.76C1594.18 7288.9 1628.89 7561.51 1605.77 7624.88C1562.55 7743.36 1454.22 7148.72 1454.22 6965.37C1454.22 6782.02 1575.88 6337.23 1616.44 6502.1Z" stroke="black" stroke-width="5" stroke-miterlimit="10" stroke-linejoin="round"/>
<path id="Vector_98" d="M1183.26 6502.1C1164.4 6578.8 1203.79 6793.12 1204.6 7023.76C1205.52 7288.9 1170.81 7561.51 1193.93 7624.88C1237.15 7743.36 1345.49 7148.72 1345.49 6965.37C1345.49 6782.02 1223.82 6337.23 1183.26 6502.1Z" stroke="black" stroke-width="5" stroke-miterlimit="10" stroke-linejoin="round"/>
<path id="Vector_99" d="M3439.49 6638.99C3477.35 6625 3439.49 6851.61 3419.28 7053.24C3408.06 7165.2 3432.72 7273.69 3441.26 7362.51C3451.47 7468.59 3464.79 7572.41 3450.16 7596.06C3424.18 7638.06 3350.74 7534.72 3315.1 7419.23C3277.62 7297.78 3267.87 7151.09 3267.87 7109.19C3267.87 6867.3 3401.64 6652.97 3439.49 6638.99Z" stroke="black" stroke-width="5" stroke-miterlimit="10" stroke-linejoin="round"/>
</g>
<g id="hamstrings">
<path id="Vector_100" d="M6189.54 4861.99C6206.31 4840.05 6335.67 4838.47 6353.6 4861.99C6361.75 4872.69 6395.24 5128.23 6405.85 5403.69C6418.58 5733.92 6403.1 6092.78 6334.44 6092.78C6265.69 6092.78 6234.49 5732.32 6213.36 5401.48C6195.8 5126.48 6181.93 4871.95 6189.54 4861.99Z" stroke="black" stroke-width="5" stroke-miterlimit="10" stroke-linejoin="round"/>
<path id="Vector_101" d="M5901.98 4715.42C5992.01 4798.77 6056.81 4830.15 6109.97 4830.15C6140.26 4830.15 6148.73 4965.37 6161.59 5146.55C6187.41 5510.33 6200.74 6046.27 6078.15 6071.09C6007.55 6085.4 5923.05 5653.13 5886.91 5272.31C5866.65 5058.82 5861.22 4677.68 5901.98 4715.42Z" stroke="black" stroke-width="5" stroke-miterlimit="10" stroke-linejoin="round"/>
<path id="Vector_102" d="M7183.09 4715.42C7093.07 4798.77 7028.26 4830.15 6975.1 4830.15C6944.82 4830.15 6936.34 4965.37 6923.48 5146.55C6897.66 5510.33 6884.33 6046.27 7006.92 6071.09C7077.52 6085.4 7162.02 5653.13 7198.17 5272.31C7218.42 5058.82 7223.85 4677.68 7183.09 4715.42Z" stroke="black" stroke-width="5" stroke-miterlimit="10" stroke-linejoin="round"/>
<path id="Vector_103" d="M3550.28 4953.61C3533.91 5204.96 3530.6 5252.35 3544.58 5551.8C3558.55 5851.26 3566.81 6247.28 3640.75 6125.84C3663.44 6088.57 3724.29 5984.09 3736.48 5851.95C3750.16 5703.61 3748.91 5520.42 3736.48 5358.27C3723.92 5194.36 3700 5051.95 3680.11 4988.86C3651.68 4898.64 3555.76 4869.42 3550.28 4953.61Z" stroke="black" stroke-width="5" stroke-miterlimit="10" stroke-linejoin="round"/>
<path id="Vector_104" d="M6898.84 4861.99C6882.07 4840.05 6752.71 4838.47 6734.78 4861.99C6726.33 4873.07 6691.46 5147.08 6681.42 5433.72C6670.15 5755.29 6687.36 6092.78 6753.94 6092.78C6820.6 6092.78 6851.32 5753.92 6873.03 5431.75C6892.32 5145.43 6906.73 4872.31 6898.84 4861.99Z" stroke="black" stroke-width="5" stroke-miterlimit="10" stroke-linejoin="round"/>
</g>
<g id="quads">
<path id="Vector_105" d="M3991.36 6038.39C3819.23 6151.84 3854.98 5597.11 3890.45 5395.56C3925.92 5194.01 4006.57 4730.8 4057.25 4554.51C4107.94 4378.21 4235.36 4636.72 4235.36 4717.95C4235.36 4764.08 4217.14 4924.49 4235.36 5024.34C4249.21 5100.25 4300.72 5115.81 4300.72 5167.16C4300.72 5286.04 4163.48 5924.94 3991.36 6038.39Z" stroke="black" stroke-width="5" stroke-miterlimit="10" stroke-linejoin="round"/>
<path id="Vector_106" d="M1251.46 4542.76C1196.2 4478.2 1101.3 5052.65 1059.84 5396.62C1018.38 5740.58 1088.25 5914.27 1172.97 5914.27C1257.68 5914.27 1262.13 5754.42 1291.56 5537.55C1320.99 5320.68 1306.72 4607.33 1251.46 4542.76Z" stroke="black" stroke-width="5" stroke-miterlimit="10" stroke-linejoin="round"/>
<path id="Vector_107" d="M754.136 4243.05C682.32 4136.08 636.214 4817.73 636.214 5107.38C636.214 5397.04 875.824 6103.22 966.544 5914.75C1057.26 5726.27 957.049 5096.33 953.508 5076.72C927.745 4933.93 817.279 4337.09 754.136 4243.05Z" stroke="black" stroke-width="5" stroke-miterlimit="10" stroke-linejoin="round"/>
<path id="Vector_108" d="M2038.64 4243.05C2110.46 4136.08 2156.56 4817.73 2156.56 5107.38C2156.56 5397.04 1916.95 6103.22 1826.23 5914.75C1735.5 5726.27 1835.73 5096.33 1839.27 5076.72C1865.03 4933.93 1975.5 4337.09 2038.64 4243.05Z" stroke="black" stroke-width="5" stroke-miterlimit="10" stroke-linejoin="round"/>
<path id="Vector_109" d="M1540 4542.76C1595.26 4478.2 1690.15 5052.65 1731.62 5396.62C1773.09 5740.58 1703.21 5914.27 1618.49 5914.27C1533.77 5914.27 1529.34 5754.42 1499.9 5537.55C1470.47 5320.68 1484.75 4607.33 1540 4542.76Z" stroke="black" stroke-width="5" stroke-miterlimit="10" stroke-linejoin="round"/>
</g>
<g id="traps">
<path id="Vector_110" d="M6505.03 1477.26C6543.14 1545.78 6538.37 2889.2 6476.87 2813.99C6448.16 2778.87 6354.58 2594.7 6262.97 2454.55C6158.32 2294.49 5914.49 2087.42 5914.49 2011.62C5914.49 1935.8 6060.28 1826.26 6040.55 1793.19C6020.83 1760.11 5787.17 1605.51 5857.18 1567.42C5927.2 1529.35 6466.93 1408.74 6505.03 1477.26Z" stroke="black" stroke-width="5" stroke-miterlimit="10" stroke-linejoin="round"/>
<path id="Vector_111" d="M6593.85 1477.26C6555.75 1545.78 6560.52 2889.2 6622.02 2813.99C6650.72 2778.87 6744.29 2582.38 6835.92 2442.24C6940.57 2282.16 7173.73 2087.42 7173.73 2011.62C7173.73 1935.8 7027.94 1826.26 7047.66 1793.19C7067.39 1760.11 7301.05 1605.51 7231.03 1567.42C7161.02 1529.35 6631.96 1408.74 6593.85 1477.26Z" stroke="black" stroke-width="5" stroke-miterlimit="10" stroke-linejoin="round"/>
</g>
<g id="pecs">
<path id="Vector_112" d="M4438.43 2064.42C4418.99 2050.27 4380.63 2085.65 4306.05 2100.69C4231.48 2115.74 4173.46 2110.41 4164.76 2135.69C4156.07 2160.97 4190.53 2222.81 4210.64 2249.2C4219.67 2261.09 4268.32 2313.58 4306.05 2340.87C4352.19 2374.24 4389.68 2381.65 4413.77 2376.82C4439.43 2371.68 4479.58 2338.69 4494.46 2291.57C4505 2258.21 4494.46 2211.82 4494.46 2189.51C4494.46 2135.69 4457.87 2078.58 4438.43 2064.42Z" stroke="black" stroke-width="5" stroke-miterlimit="10" stroke-linejoin="round"/>
<path id="Vector_113" d="M4275.95 1805.15C4268.2 1805.15 4267.7 1847.89 4240.45 1900.16C4206.86 1964.63 4154.65 2044.92 4177.9 2074.72C4189.52 2089.62 4397.74 2066.02 4412.63 2030.81C4427.51 1995.6 4293.28 1805.15 4275.95 1805.15Z" stroke="black" stroke-width="5" stroke-miterlimit="10" stroke-linejoin="round"/>
<path id="Vector_114" d="M3958.42 1586.55C3939.48 1630.73 4013.32 1697.5 4041.87 1823.1C4070.42 1948.7 4042.79 2075.66 4079.09 2109.3C4115.4 2142.92 4151.68 2043.49 4187.09 1957.63C4222.5 1871.77 4238.12 1843.66 4220.76 1765.85C4203.39 1688.03 4181.6 1686.11 4117.63 1646.37C4053.67 1606.64 3977.36 1542.36 3958.42 1586.55Z" stroke="black" stroke-width="5" stroke-miterlimit="10" stroke-linejoin="round"/>
<path id="Vector_115" d="M923.2 2139.07L1159.06 2189.51C1159.06 2189.51 1332.37 2234.63 1332.37 2292.57C1332.37 2325.77 1264.46 2353.09 1264.46 2353.09L1129.73 2388.85L980.049 2419.76C980.049 2419.76 883.686 2442.24 812.094 2442.24C747.127 2442.24 698.322 2421.82 693.671 2419.76C643.34 2397.48 649.474 2399.38 610.803 2353.09C572.143 2306.81 539.021 2234.63 539.021 2234.63C539.021 2234.63 517.095 2169.66 539.021 2139.07C560.952 2108.48 689.009 2105.56 763.129 2112.26C837.249 2118.96 923.2 2139.07 923.2 2139.07Z" stroke="black" stroke-width="5" stroke-miterlimit="10" stroke-linejoin="round"/>
<path id="Vector_116" d="M1834.54 2139.07L1598.69 2189.51C1598.69 2189.51 1425.38 2234.63 1425.38 2292.57C1425.38 2325.77 1493.28 2353.09 1493.28 2353.09L1628.01 2388.85L1777.68 2419.76C1777.68 2419.76 1874.06 2442.24 1945.65 2442.24C2010.62 2442.24 2059.42 2421.82 2064.07 2419.76C2114.39 2397.48 2108.27 2399.38 2146.93 2353.09C2185.59 2306.81 2218.73 2234.63 2218.73 2234.63C2218.73 2234.63 2240.65 2169.66 2218.73 2139.07C2196.79 2108.48 2068.72 2105.56 1994.62 2112.26C1920.5 2118.96 1834.54 2139.07 1834.54 2139.07Z" stroke="black" stroke-width="5" stroke-miterlimit="10" stroke-linejoin="round"/>
<path id="Vector_117" d="M1344.56 1863.88L1349.66 1946.24L1355.79 2072.26C1355.79 2072.26 1363.9 2168.91 1344.56 2183.17C1325.23 2197.43 1243.33 2183.17 1243.33 2183.17C1243.33 2183.17 1183.63 2173.89 1133.51 2160C1083.37 2146.11 971.781 2119.21 971.781 2119.21C971.781 2119.21 930.08 2110.27 870.138 2104.84C810.195 2099.42 777.168 2095.4 697.852 2092.25C618.537 2089.1 536.953 2112.07 552.868 2092.25C568.782 2072.43 672.516 2012.98 672.516 2012.98L775.13 1960.8L885.318 1909.69L1000.31 1863.88L1122.97 1823.1L1250.43 1798.97C1250.43 1798.97 1297.81 1792.93 1318.85 1798.97C1339.89 1805 1344.56 1863.88 1344.56 1863.88Z" stroke="black" stroke-width="5" stroke-miterlimit="10" stroke-linejoin="round"/>
<path id="Vector_118" d="M1417.21 1863.88L1412.11 1946.24L1405.97 2072.26C1405.97 2072.26 1397.87 2168.91 1417.21 2183.17C1436.54 2197.43 1518.43 2183.17 1518.43 2183.17C1518.43 2183.17 1578.13 2173.89 1628.26 2160C1678.4 2146.11 1789.98 2119.21 1789.98 2119.21C1789.98 2119.21 1831.68 2110.27 1891.63 2104.84C1951.57 2099.42 1984.6 2095.4 2063.91 2092.25C2143.23 2089.1 2224.81 2112.07 2208.9 2092.25C2192.98 2072.43 2089.25 2012.98 2089.25 2012.98L1986.63 1960.8L1876.45 1909.69L1761.46 1863.88L1638.8 1823.1L1511.34 1798.97C1511.34 1798.97 1463.95 1792.93 1442.92 1798.97C1421.88 1805 1417.21 1863.88 1417.21 1863.88Z" stroke="black" stroke-width="5" stroke-miterlimit="10" stroke-linejoin="round"/>
<path id="Vector_119" d="M929.857 1612.77C907.326 1618.85 829.302 1663.82 829.302 1663.82L723.402 1733.89L643.34 1814.17L584.72 1904.26L554.673 1979.65C554.673 1979.65 525.968 2032.51 546.306 2038.67C566.649 2044.81 636.022 2004.26 636.022 2004.26L763.705 1931.41L916.34 1857.43L1052.4 1814.17L1198.25 1765.43L1261.22 1749.59C1261.22 1749.59 1310.77 1740.68 1307.19 1723.56C1303.59 1706.44 1246.87 1681.11 1246.87 1681.11L1166.51 1649.94L1060.06 1612.77L1022.95 1606.9C1022.95 1606.9 952.398 1606.69 929.857 1612.77Z" stroke="black" stroke-width="5" stroke-miterlimit="10" stroke-linejoin="round"/>
<path id="Vector_120" d="M1830.73 1612.77C1853.27 1618.85 1931.29 1663.82 1931.29 1663.82L2037.19 1733.89L2083 1779.82L2117.25 1814.17L2175.87 1904.26L2205.92 1979.65C2205.92 1979.65 2234.62 2032.51 2214.29 2038.67C2193.94 2044.81 2124.56 2004.26 2124.56 2004.26L1996.89 1931.41L1844.25 1857.43L1708.19 1814.17L1562.34 1765.43L1499.37 1749.59C1499.37 1749.59 1449.82 1740.68 1453.4 1723.56C1457 1706.44 1513.72 1681.11 1513.72 1681.11L1594.08 1649.94L1700.53 1612.77L1737.64 1606.9C1737.64 1606.9 1808.19 1606.69 1830.73 1612.77Z" stroke="black" stroke-width="5" stroke-miterlimit="10" stroke-linejoin="round"/>
</g>
<g id="front_delts">
<path id="Vector_121" d="M3877.54 2248.95C3916.21 2248.95 4055.85 2100.89 3996.94 1861.04C3938.02 1621.2 3751.72 1583.85 3713.03 1591.38C3674.36 1598.9 3801.1 1726.75 3842.22 1891.14C3883.35 2055.53 3838.86 2248.95 3877.54 2248.95Z" stroke="black" stroke-width="5" stroke-miterlimit="10" stroke-linejoin="round"/>
<path id="Vector_122" d="M846.53 1590.51C846.53 1631.26 683.162 1688.73 547.991 1839.17C412.823 1989.6 347.608 2250.3 304.105 2207.12C273.225 2176.46 303.161 1994.72 347.63 1839.17C380.212 1725.19 466.193 1625.34 505.116 1601.17C556.78 1569.11 846.53 1549.77 846.53 1590.51Z" stroke="black" stroke-width="5" stroke-miterlimit="10" stroke-linejoin="round"/>
<path id="Vector_123" d="M1923.63 1590.51C1923.63 1631.26 2087.01 1688.73 2222.17 1839.17C2357.34 1989.6 2422.55 2250.3 2466.06 2207.12C2496.94 2176.46 2467.01 1994.72 2422.53 1839.17C2389.95 1725.19 2303.97 1625.34 2265.04 1601.17C2213.38 1569.11 1923.63 1549.77 1923.63 1590.51Z" stroke="black" stroke-width="5" stroke-miterlimit="10" stroke-linejoin="round"/>
</g>
<g id="side_delts">
<path id="Vector_124" d="M2337.31 1610.44C2313.31 1621.36 2401.93 1704.17 2441.8 1803.29C2461.38 1851.96 2486.66 1928.09 2497.55 1993.66C2508.85 2061.65 2514.21 2415.17 2564.79 2415.17C2615.38 2415.17 2620.04 2297.8 2630.88 2171.06C2638.37 2083.48 2618.43 1968.81 2608.14 1908.18C2574.89 1712 2361.31 1599.52 2337.31 1610.44Z" stroke="black" stroke-width="5" stroke-miterlimit="10" stroke-linejoin="round"/>
<path id="Vector_125" d="M430.887 1610.44C454.888 1621.36 366.261 1704.17 326.396 1803.29C306.824 1851.96 281.541 1928.09 270.642 1993.66C259.343 2061.65 253.981 2415.17 203.402 2415.17C152.823 2415.17 148.157 2297.8 137.318 2171.06C129.828 2083.48 149.771 1968.81 160.048 1908.18C193.306 1712 406.886 1599.52 430.887 1610.44Z" stroke="black" stroke-width="5" stroke-miterlimit="10" stroke-linejoin="round"/>
<path id="Vector_126" d="M3573.79 1673.53C3501.63 1737.36 3547.6 1985.63 3560.69 2045.51C3573.79 2105.37 3619.36 2106.07 3664.59 2215.12C3709.83 2324.16 3706.4 2496.35 3741.65 2481.7C3776.88 2467.05 3797.67 2315.24 3813.96 2149.66C3830.26 1984.08 3813.96 1868.47 3789.74 1819.37C3765.5 1770.28 3645.94 1609.72 3573.79 1673.53Z" stroke="black" stroke-width="5" stroke-miterlimit="10" stroke-linejoin="round"/>
</g>
<g id="rear_delts">
<path id="Vector_127" d="M3463.1 1777.89C3390.21 1710.49 3325.08 2005.81 3362.32 2169.12C3399.56 2332.44 3459.96 2385.22 3501.83 2425.57C3543.7 2465.9 3642.91 2482.21 3666.35 2467.93C3689.8 2453.63 3647.24 2278.12 3620.79 2208.28C3594.34 2138.45 3552.97 2133.82 3513.55 2026.22C3474.13 1918.63 3535.98 1845.29 3463.1 1777.89Z" stroke="black" stroke-width="5" stroke-miterlimit="10" stroke-linejoin="round"/>
<path id="Vector_128" d="M5884.94 1751.84C5868.43 1773.89 5789.47 1819.8 5724.53 1868.59C5656.64 1919.6 5602.6 1973.72 5581.24 2006.93C5530.39 2086.05 5442.73 2309.71 5380.08 2309.71C5335.19 2309.71 5366.39 1947.15 5380.08 1908.18C5393.76 1869.21 5424.79 1796.41 5521.61 1701.68C5591.74 1633.07 5699.11 1573.41 5724.53 1571.63C5785.08 1567.42 5918.72 1706.75 5884.94 1751.84Z" stroke="black" stroke-width="5" stroke-miterlimit="10" stroke-linejoin="round"/>
<path id="Vector_129" d="M7207.65 1751.84C7224.16 1773.89 7303.13 1819.8 7368.05 1868.59C7435.95 1919.6 7490 1973.72 7511.34 2006.93C7562.21 2086.05 7649.85 2309.71 7712.52 2309.71C7757.41 2309.71 7726.2 1947.15 7712.52 1908.18C7698.82 1869.21 7667.8 1796.41 7570.99 1701.68C7500.86 1633.07 7393.48 1573.41 7368.05 1571.63C7307.51 1567.42 7173.88 1706.75 7207.65 1751.84Z" stroke="black" stroke-width="5" stroke-miterlimit="10" stroke-linejoin="round"/>
</g>
<g id="triceps">
<path id="Vector_130" d="M273.048 2425.37C273.048 2437.68 252.823 2499.45 242.103 2577.41C232.474 2647.45 223.632 2727.26 223.632 2802.61C223.632 2956.1 243.03 3184.96 192.637 3184.96C142.244 3184.96 105.573 2956.4 105.573 2815.11C105.573 2673.82 114.671 2641.94 153.873 2547.63C193.075 2453.31 273.048 2368.16 273.048 2425.37Z" stroke="black" stroke-width="5" stroke-miterlimit="10" stroke-linejoin="round"/>
<path id="Vector_131" d="M2505.84 2425.37C2505.84 2437.68 2526.07 2499.45 2536.79 2577.41C2546.41 2647.45 2555.25 2727.26 2555.25 2802.61C2555.25 2956.1 2535.86 3184.96 2586.25 3184.96C2636.65 3184.96 2673.31 2956.4 2673.31 2815.11C2673.31 2673.82 2664.21 2641.94 2625.01 2547.63C2585.82 2453.31 2505.84 2368.16 2505.84 2425.37Z" stroke="black" stroke-width="5" stroke-miterlimit="10" stroke-linejoin="round"/>
<path id="Vector_132" d="M3522.13 2507.26C3462.19 2552.38 3473.22 2769.48 3491.54 2827.92C3509.84 2886.37 3573.02 3006.97 3597.11 3031.2C3621.2 3055.44 3669.23 3071.5 3697.5 3103.85C3725.78 3136.2 3792.32 3335.56 3831.2 3319.47C3870.09 3303.38 3866.28 3219.25 3848.75 3055.44C3831.23 2891.62 3773.56 2708.54 3750.45 2653.53C3727.32 2598.52 3582.07 2462.14 3522.13 2507.26Z" stroke="black" stroke-width="5" stroke-miterlimit="10" stroke-linejoin="round"/>
<path id="Vector_133" d="M5493.05 2282.79C5436.2 2272.17 5324.04 2471.41 5289.56 2540.64C5255.07 2609.87 5231.4 2727.01 5231.4 2795.91C5231.4 2864.81 5201.38 3125.87 5231.4 3132.01C5261.41 3138.16 5302.96 2731.65 5351.46 2820.49C5399.95 2909.33 5376.01 2921.84 5392.75 2966.69C5399.98 2986.05 5439.34 3007.49 5455.56 3050.49C5476.91 3107.07 5476.55 3184.96 5493.05 3184.96C5506.59 3184.96 5558.16 3056.1 5585.91 2918.54C5617.69 2761.08 5648.29 2751.17 5625.07 2592.24C5601.85 2433.29 5549.9 2293.42 5493.05 2282.79Z" stroke="black" stroke-width="5" stroke-miterlimit="10" stroke-linejoin="round"/>
<path id="Vector_134" d="M7587.81 2282.79C7644.66 2272.17 7756.82 2471.41 7791.3 2540.64C7825.78 2609.87 7849.46 2727.01 7849.46 2795.91C7849.46 2864.81 7879.47 3125.87 7849.46 3132.01C7819.44 3138.16 7777.9 2731.65 7729.4 2820.49C7680.91 2909.33 7704.85 2921.84 7688.11 2966.69C7680.88 2986.05 7641.51 3007.49 7625.3 3050.49C7603.94 3107.07 7604.3 3184.96 7587.81 3184.96C7574.27 3184.96 7522.69 3056.1 7494.94 2918.54C7463.17 2761.08 7432.57 2751.17 7455.78 2592.24C7479.01 2433.29 7530.95 2293.42 7587.81 2282.79Z" stroke="black" stroke-width="5" stroke-miterlimit="10" stroke-linejoin="round"/>
</g>
<g id="abs">
<path id="Vector_135" d="M1333.79 3443.05C1358.79 3478.41 1363.44 3871.73 1344.46 4050.21C1325.48 4228.7 1282.19 4183.76 1220.81 4107.89C1219.58 4106.39 1164.76 4031.82 1107.81 3870.65C1049.7 3706.22 1038.8 3560.18 1047.46 3531.5C1056.12 3502.81 1107.81 3453.72 1166.96 3443.05C1226.1 3432.39 1308.8 3407.71 1333.79 3443.05Z" stroke="black" stroke-width="5" stroke-miterlimit="10" stroke-linejoin="round"/>
<path id="Vector_136" d="M1429.86 3443.05C1404.86 3478.41 1400.21 3871.73 1419.19 4050.21C1438.17 4228.7 1481.45 4183.76 1542.84 4107.89C1544.06 4106.39 1598.88 4031.82 1655.84 3870.65C1713.95 3706.22 1724.85 3560.18 1716.19 3531.5C1707.53 3502.81 1655.83 3453.72 1596.69 3443.05C1537.54 3432.39 1454.85 3407.71 1429.86 3443.05Z" stroke="black" stroke-width="5" stroke-miterlimit="10" stroke-linejoin="round"/>
<path id="Vector_137" d="M1004.64 3024.74C959.417 3077.54 1023.23 3478.21 1091.01 3428.05C1158.79 3377.9 1196.69 3396.86 1226.75 3377.9C1259.59 3357.18 1278.2 3320.4 1290.57 3297.61C1303.27 3274.19 1318.72 3263.87 1329.99 3239.62C1353.01 3190.13 1347.92 3010.9 1319.32 2990.46C1290.73 2970.01 1049.85 2971.92 1004.64 3024.74Z" stroke="black" stroke-width="5" stroke-miterlimit="10" stroke-linejoin="round"/>
<path id="Vector_138" d="M1756 3024.74C1801.22 3077.54 1737.4 3478.21 1669.62 3428.05C1601.85 3377.9 1563.93 3396.86 1533.87 3377.9C1501.03 3357.18 1482.42 3320.4 1470.07 3297.61C1457.36 3274.19 1441.91 3263.87 1430.64 3239.62C1407.63 3190.13 1412.72 3010.9 1441.3 2990.46C1469.91 2970.01 1710.79 2971.92 1756 3024.74Z" stroke="black" stroke-width="5" stroke-miterlimit="10" stroke-linejoin="round"/>
<path id="Vector_139" d="M1332.46 2412.87C1364.88 2426.68 1356.89 2562.51 1332.46 2595.92C1308.03 2629.33 1204.14 2605.63 1142.86 2617.25C1081.58 2628.87 1060.59 2656.5 1015.39 2656.5C970.202 2656.5 964.388 2581.46 1010.23 2517.88C1056.08 2454.32 1112.5 2435.67 1166.78 2412.87C1221.05 2390.08 1300.04 2399.06 1332.46 2412.87Z" stroke="black" stroke-width="5" stroke-miterlimit="10" stroke-linejoin="round"/>
<path id="Vector_140" d="M1426.69 2412.87C1394.26 2426.68 1402.26 2562.51 1426.69 2595.92C1451.11 2629.33 1555.01 2605.63 1616.28 2617.25C1677.56 2628.87 1698.56 2656.5 1743.75 2656.5C1788.95 2656.5 1794.76 2581.46 1748.91 2517.88C1703.07 2454.32 1646.64 2435.67 1592.37 2412.87C1538.11 2390.08 1459.11 2399.06 1426.69 2412.87Z" stroke="black" stroke-width="5" stroke-miterlimit="10" stroke-linejoin="round"/>
<path id="Vector_141" d="M1323.81 2667.16C1362.97 2711.34 1345.15 2865.98 1334.48 2914.61C1323.81 2963.22 1060.6 2941.04 1013.19 2976.39C965.786 3011.76 950.947 2760.22 999.88 2711.34C1048.81 2662.46 1284.65 2622.98 1323.81 2667.16Z" stroke="black" stroke-width="5" stroke-miterlimit="10" stroke-linejoin="round"/>
<path id="Vector_142" d="M1441.82 2667.16C1402.66 2711.34 1420.48 2865.98 1431.15 2914.61C1441.82 2963.22 1705.01 2941.04 1752.42 2976.39C1799.83 3011.76 1814.67 2760.22 1765.74 2711.34C1716.8 2662.46 1480.98 2622.98 1441.82 2667.16Z" stroke="black" stroke-width="5" stroke-miterlimit="10" stroke-linejoin="round"/>
<path id="Vector_143" d="M4452.09 3474.08C4405.04 3474.08 4383.6 3618.85 4372.23 3762.96C4360.85 3907.07 4379.71 4050.5 4406.57 4050.5C4433.44 4050.5 4468.32 3907.07 4479.7 3762.96C4486.72 3674.06 4503.15 3584.91 4495.49 3529.65C4490.72 3495.33 4470.12 3474.08 4452.09 3474.08Z" stroke="black" stroke-width="5" stroke-miterlimit="10" stroke-linejoin="round"/>
<path id="Vector_144" d="M4384.77 3159.38C4348.61 3180.13 4398 3422.24 4439.88 3422.24C4449.7 3422.24 4476.79 3409.96 4486.81 3390.85C4519.48 3328.52 4531.09 3193.51 4519.42 3175.1C4504.17 3151.03 4420.92 3138.65 4384.77 3159.38Z" stroke="black" stroke-width="5" stroke-miterlimit="10" stroke-linejoin="round"/>
<path id="Vector_145" d="M4490.03 2817.03C4458.82 2821.24 4380.04 3006.4 4384.99 3069.53C4389.94 3132.65 4492.47 3087.67 4509.82 3052.72C4527.17 3017.78 4521.24 2812.83 4490.03 2817.03Z" stroke="black" stroke-width="5" stroke-miterlimit="10" stroke-linejoin="round"/>
<path id="Vector_146" d="M4460.03 2473.02C4429.1 2454.64 4395.84 2500.18 4389.44 2561C4384.27 2610.1 4401.4 2693.13 4429.42 2725.63C4460.03 2761.12 4517.43 2643.51 4523.83 2582.7C4530.25 2521.87 4490.97 2491.4 4460.03 2473.02Z" stroke="black" stroke-width="5" stroke-miterlimit="10" stroke-linejoin="round"/>
</g>
<g id="rhomboids">
<path id="Vector_147" d="M5813.06 1863.13C5740.39 1885.09 5696.26 1925.58 5657.34 1989.47C5618.4 2053.36 5646.67 2118.67 5646.67 2118.67C5646.67 2118.67 5682.41 2188.12 5723.23 2220.04C5761.63 2250.07 5804.52 2242.91 5826.32 2236.03C5871.28 2221.83 5911.08 2204.02 5911.08 2168.56C5911.08 2153.45 5891.3 2110.42 5880.36 2046.15C5865.58 1959.46 5894.13 1838.64 5813.06 1863.13Z" stroke="black" stroke-width="5" stroke-miterlimit="10" stroke-linejoin="round"/>
<path id="Vector_148" d="M7270.94 1863.13C7343.61 1885.09 7387.73 1925.58 7426.67 1989.47C7465.6 2053.36 7437.34 2118.67 7437.34 2118.67C7437.34 2118.67 7401.59 2188.12 7360.78 2220.04C7322.37 2250.07 7279.49 2242.91 7257.68 2236.03C7212.73 2221.83 7172.93 2204.02 7172.93 2168.56C7172.93 2153.45 7192.69 2110.42 7203.65 2046.15C7218.42 1959.46 7189.88 1838.64 7270.94 1863.13Z" stroke="black" stroke-width="5" stroke-miterlimit="10" stroke-linejoin="round"/>
<path id="Vector_149" d="M3250.56 2248.95C3228.37 2264.38 3225.32 2371.46 3250.56 2460.73C3275.79 2549.99 3365.3 2641.89 3372.84 2595.34C3380.37 2548.79 3385.14 2493.12 3369.7 2462.35C3354.27 2431.57 3351.11 2433.62 3318.65 2377.61C3286.2 2321.59 3272.74 2233.5 3250.56 2248.95Z" stroke="black" stroke-width="5" stroke-miterlimit="10" stroke-linejoin="round"/>
</g>
<g id="lats">
<path id="Vector_150" d="M5956.92 2228.66C5904.49 2303.72 5803.32 2315.93 5697.04 2271.72C5590.75 2227.5 5807.06 2894.99 5807.06 2894.99C5807.06 2894.99 5989.73 3286.19 6106.15 3261.82C6222.57 3237.46 6366.3 2854.58 6366.3 2785.9C6366.3 2757.2 6285.94 2586.42 6209.2 2473.02C6102.33 2315.07 6009.35 2153.59 5956.92 2228.66Z" stroke="black" stroke-width="5" stroke-miterlimit="10" stroke-linejoin="round"/>
<path id="Vector_151" d="M7133.16 2228.66C7185.59 2303.72 7286.75 2315.93 7393.04 2271.72C7499.33 2227.5 7283.02 2894.99 7283.02 2894.99C7283.02 2894.99 7100.34 3286.19 6983.92 3261.82C6867.52 3237.46 6723.78 2854.58 6723.78 2785.9C6723.78 2757.2 6804.14 2586.42 6880.87 2473.02C6987.74 2315.07 7080.72 2153.59 7133.16 2228.66Z" stroke="black" stroke-width="5" stroke-miterlimit="10" stroke-linejoin="round"/>
</g>
<g id="biceps">
<path id="Vector_152" d="M443.868 2147.48C420.693 2106.93 310.189 2271.72 276.33 2514.7C242.471 2757.69 243.119 2971.27 278.185 3180.77C294.795 3280.01 423.816 3180.44 456.477 3031.18C494.982 2855.22 518.608 2806.36 518.608 2615.22C518.608 2424.1 467.041 2188.03 443.868 2147.48Z" stroke="black" stroke-width="5" stroke-miterlimit="10" stroke-linejoin="round"/>
<path id="Vector_153" d="M3879.06 2320.8C3828.15 2292.17 3791.22 2482.57 3791.22 2593.84C3791.22 2645.86 3836.49 2744.39 3859.44 2836.4C3885.58 2941.2 3891.09 3037.55 3915.36 3047.11C3960.93 3065.07 3985.26 2849.92 3973.52 2665.68C3961.78 2481.43 3929.96 2349.43 3879.06 2320.8Z" stroke="black" stroke-width="5" stroke-miterlimit="10" stroke-linejoin="round"/>
<path id="Vector_154" d="M2342.37 2158.15C2365.55 2117.6 2476.04 2282.39 2509.9 2525.37C2543.76 2768.36 2543.11 2981.94 2508.05 3191.44C2491.44 3290.68 2362.42 3191.11 2329.76 3041.85C2291.26 2865.89 2267.63 2817.03 2267.63 2625.89C2267.63 2434.76 2319.19 2198.7 2342.37 2158.15Z" stroke="black" stroke-width="5" stroke-miterlimit="10" stroke-linejoin="round"/>
</g>
<g id="forearms">
<path id="Vector_155" d="M5531.53 3309.77C5482.66 3339.75 5423.34 3427.83 5399.77 3506.16C5376.19 3584.5 5489.58 4516.21 5543.69 4516.21C5615.93 4516.21 5545.69 4284.72 5556.72 4118.22C5575.95 3827.81 5615.93 3525.81 5615.93 3495.49C5615.93 3447.8 5580.41 3279.8 5531.53 3309.77Z" stroke="black" stroke-width="5" stroke-miterlimit="10" stroke-linejoin="round"/>
<path id="Vector_156" d="M5262.15 3418.07C5202.6 3350 5137.95 3503.49 5172.67 3760.24C5207.41 4017 5396.2 4513.3 5469.94 4553.7C5499.21 4569.72 5472.53 4442.12 5444.69 4276.94C5428.28 4179.49 5412.85 4042.26 5394.87 3967.15C5356.2 3805.58 5351.13 3658.95 5340.01 3614.98C5309.87 3495.86 5321.68 3486.15 5262.15 3418.07Z" stroke="black" stroke-width="5" stroke-miterlimit="10" stroke-linejoin="round"/>
<path id="Vector_157" d="M7826.37 3418.07C7885.92 3350 7950.57 3503.49 7915.84 3760.24C7881.11 4017 7692.32 4513.3 7618.58 4553.7C7589.31 4569.72 7615.99 4442.12 7643.83 4276.94C7660.24 4179.49 7675.67 4042.26 7693.65 3967.15C7732.32 3805.58 7737.39 3658.95 7748.51 3614.98C7778.65 3495.86 7766.83 3486.15 7826.37 3418.07Z" stroke="black" stroke-width="5" stroke-miterlimit="10" stroke-linejoin="round"/>
<path id="Vector_158" d="M7561.22 3309.77C7610.08 3339.75 7669.41 3427.83 7692.98 3506.16C7716.55 3584.5 7603.16 4516.21 7549.06 4516.21C7476.81 4516.21 7547.06 4284.72 7536.03 4118.22C7516.79 3827.81 7476.81 3525.81 7476.81 3495.49C7476.81 3447.8 7512.33 3279.8 7561.22 3309.77Z" stroke="black" stroke-width="5" stroke-miterlimit="10" stroke-linejoin="round"/>
<path id="Vector_159" d="M3841.87 3503.55C3749.45 3513.29 3807.26 3578.09 3722.28 3588.32C3637.31 3598.54 4059.11 4174.5 4059.11 4174.5C4059.11 4174.5 4137.08 4280.03 4214.48 4395.63C4260.99 4465.1 4315.96 4564.75 4329.32 4572.75C4364.9 4594.08 4450.99 4570.92 4450.99 4539.8C4450.99 4480.82 4349.24 4399.21 4295.19 4309.1C4237.25 4212.53 4200.46 4106.21 4153.93 4007.52C4125.51 3947.25 4084.33 3873.89 4059.11 3823.28C3971.93 3648.36 3874.86 3500.07 3841.87 3503.55Z" stroke="black" stroke-width="5" stroke-miterlimit="10" stroke-linejoin="round"/>
<path id="Vector_160" d="M3929.12 3152.08C3871.97 3100.66 3917.1 3308.74 3863.48 3382.95C3839.81 3415.71 3907.79 3544.75 4044.96 3686.44C4086.43 3729.27 4118.97 3819.01 4145.21 3873.26C4221.7 4031.38 4244.72 4164.9 4279.48 4136.91C4326.16 4099.33 4262.71 3790.95 4169.79 3544.75C4076.86 3298.53 3986.27 3203.49 3929.12 3152.08Z" stroke="black" stroke-width="5" stroke-miterlimit="10" stroke-linejoin="round"/>
<path id="Vector_161" d="M209.204 3231.31C29.8032 3258.11 157.142 3782.75 157.142 3782.75C157.142 3782.75 206.466 3970.19 240.735 4155.56C275.767 4345.04 296.027 4532.37 320.831 4515.1C343.415 4499.38 328.689 4330.14 331.498 4152.04C334.795 3943.16 353.419 3722.07 353.419 3722.07C353.419 3722.07 388.607 3204.52 209.204 3231.31Z" stroke="black" stroke-width="5" stroke-miterlimit="10" stroke-linejoin="round"/>
<path id="Vector_162" d="M389.391 3262.91C358.148 3277.7 395.019 3481.26 389.391 3683.73C383.763 3886.2 335.637 4087.57 366.88 4072.79C383.832 4064.76 423.369 3993.89 457.314 3897.96C485.927 3817.1 499.901 3718.43 503.695 3624.6C511.99 3419.47 420.634 3248.14 389.391 3262.91Z" stroke="black" stroke-width="5" stroke-miterlimit="10" stroke-linejoin="round"/>
<path id="Vector_163" d="M66.9846 3544.75C55.4025 3544.75 57.3366 3626.42 66.9846 3758.62C76.6315 3890.82 93.7299 3969.7 135.674 4174.5C177.618 4379.31 156.297 4665.52 234.76 4577.84C313.223 4490.15 182.41 4073.55 182.41 4073.55L113.309 3758.62C113.309 3758.62 78.5656 3544.75 66.9846 3544.75Z" stroke="black" stroke-width="5" stroke-miterlimit="10" stroke-linejoin="round"/>
<path id="Vector_164" d="M2726.79 3544.75C2738.37 3544.75 2736.43 3626.42 2726.79 3758.62C2717.14 3890.82 2700.05 3969.7 2658.1 4174.5C2616.15 4379.31 2637.48 4665.52 2559.02 4577.84C2480.55 4490.15 2611.37 4073.55 2611.37 4073.55L2680.46 3758.62C2680.46 3758.62 2715.21 3544.75 2726.79 3544.75Z" stroke="black" stroke-width="5" stroke-miterlimit="10" stroke-linejoin="round"/>
<path id="Vector_165" d="M2391.46 3262.91C2422.7 3277.7 2385.84 3481.26 2391.46 3683.73C2397.09 3886.2 2445.21 4087.57 2413.97 4072.79C2397.02 4064.76 2357.48 3993.89 2323.54 3897.96C2294.92 3817.1 2280.95 3718.43 2277.15 3624.6C2268.86 3419.47 2360.22 3248.14 2391.46 3262.91Z" stroke="black" stroke-width="5" stroke-miterlimit="10" stroke-linejoin="round"/>
<path id="Vector_166" d="M2575.23 3231.31C2754.64 3258.11 2627.3 3782.75 2627.3 3782.75C2627.3 3782.75 2577.97 3970.19 2543.71 4155.56C2508.68 4345.04 2488.42 4532.37 2463.62 4515.1C2441.03 4499.38 2455.75 4330.14 2452.95 4152.04C2449.65 3943.16 2431.02 3722.07 2431.02 3722.07C2431.02 3722.07 2395.83 3204.52 2575.23 3231.31Z" stroke="black" stroke-width="5" stroke-miterlimit="10" stroke-linejoin="round"/>
</g>
<g id="glutes">
<path id="Vector_167" d="M6603.34 3839.83C6567.54 4072.74 6582.91 4416.85 6582.91 4562.57C6582.91 4708.28 6743.01 4787.09 6897.68 4741.4C7052.35 4695.72 7164.09 4482.92 7189.13 4387.23C7194.04 4368.49 7186.2 4305.88 7152.99 4253.3C7119.29 4199.95 7009.91 4196.5 6980.18 4118.59C6897.68 3902.35 6625.01 3698.78 6603.34 3839.83Z" stroke="black" stroke-width="5" stroke-miterlimit="10" stroke-linejoin="round"/>
<path id="Vector_168" d="M6494.68 3839.83C6530.49 4072.74 6515.11 4416.85 6515.11 4562.57C6515.11 4708.28 6355.01 4787.09 6200.34 4741.4C6045.66 4695.72 5933.93 4482.92 5908.89 4387.23C5903.99 4368.49 5911.83 4305.88 5945.03 4253.3C5978.73 4199.95 6088.11 4196.5 6117.84 4118.59C6200.34 3902.35 6473.01 3698.78 6494.68 3839.83Z" stroke="black" stroke-width="5" stroke-miterlimit="10" stroke-linejoin="round"/>
<path id="Vector_169" d="M3875.33 4163.83C3886.48 4200.34 3763.03 4335.92 3679.25 4456.82C3594.36 4579.31 3597.03 4745.24 3580.68 4786.01C3547.19 4869.51 3351.5 4566.6 3380.36 4353.03C3409.2 4139.46 3545.3 3890.38 3607.24 3783.07C3669.17 3675.75 3678.77 3861.59 3734.12 3951.21C3794.67 4049.24 3861.41 4118.25 3875.33 4163.83Z" stroke="black" stroke-width="5" stroke-miterlimit="10" stroke-linejoin="round"/>
</g>
<g id="hip_flexors">
<path id="Vector_170" d="M1839.29 3901.05C1752.34 4035.63 1714.51 4080.25 1655.43 4275.43C1596.36 4470.59 1766.61 5360.95 1784.34 5180.89C1802.07 5000.82 1956.76 4464.24 1956.76 4275.43C1956.76 4086.61 1926.24 3766.46 1839.29 3901.05Z" stroke="black" stroke-width="5" stroke-miterlimit="10" stroke-linejoin="round"/>
<path id="Vector_171" d="M949.762 3901.05C1036.71 4035.63 1074.54 4080.25 1133.61 4275.43C1192.68 4470.59 1022.44 5360.95 1004.7 5180.89C986.972 5000.82 832.277 4464.24 832.277 4275.43C832.277 4086.61 862.809 3766.46 949.762 3901.05Z" stroke="black" stroke-width="5" stroke-miterlimit="10" stroke-linejoin="round"/>
<path id="Vector_172" d="M730.079 3725.49C705.373 3801.85 691.952 4270.64 754.829 4163.83C817.705 4057.02 832.277 3892.16 832.277 3858.38C832.277 3824.6 754.775 3649.13 730.079 3725.49Z" stroke="black" stroke-width="5" stroke-miterlimit="10" stroke-linejoin="round"/>
<path id="Vector_173" d="M2049.15 3725.49C2073.84 3801.85 2087.28 4270.64 2024.39 4163.83C1961.51 4057.02 1946.94 3892.16 1946.94 3858.38C1946.94 3824.6 2024.45 3649.13 2049.15 3725.49Z" stroke="black" stroke-width="5" stroke-miterlimit="10" stroke-linejoin="round"/>
</g>
</g>
</g>
</svg>
