<svg width="220" height="220" viewBox="0 0 220 220" fill="none" xmlns="http://www.w3.org/2000/svg">
<path d="M177.16 0H42.8398C19.1887 0 0 19.1886 0 42.8398V177.16C0 200.811 19.1887 220 42.8398 220H177.16C200.811 220 220 200.811 220 177.16V42.3935C219.554 19.1886 200.365 0 177.16 0ZM207.505 176.714C207.505 193.671 193.671 207.059 177.16 207.059H42.8398C25.8824 207.059 12.4949 193.225 12.4949 176.714V42.3935C12.4949 25.4361 26.3286 12.0487 42.8398 12.0487H177.16C194.118 12.0487 207.505 25.8824 207.505 42.3935V176.714Z" fill="white"/>
<path d="M116.016 69.6123H103.521V103.527H70.9453V115.576H103.521V149.491H116.016V115.576H148.592V103.527H116.016V69.6123Z" fill="white"/>
</svg>
