<?xml version="1.0" standalone="no"?>
<!DOCTYPE svg PUBLIC "-//W3C//DTD SVG 20010904//EN"
 "http://www.w3.org/TR/2001/REC-SVG-20010904/DTD/svg10.dtd">
<svg version="1.0" xmlns="http://www.w3.org/2000/svg"
 width="4500.000000pt" height="4500.000000pt" viewBox="0 0 4500.000000 4500.000000"
 preserveAspectRatio="xMidYMid meet">

<g transform="translate(0.000000,4500.000000) scale(0.100000,-0.100000)"
fill="#000000" stroke="none">
<path d="M20306 27933 c-110 -37 -192 -147 -372 -498 -187 -365 -4626 -9726
-4666 -9840 -32 -89 -38 -121 -35 -167 4 -70 40 -121 106 -152 43 -19 62 -21
261 -20 228 0 302 9 510 60 288 71 470 185 662 414 90 107 349 491 458 680
101 175 132 238 268 555 274 639 859 1903 2279 4925 283 602 524 1103 535
1113 29 25 91 22 121 -5 15 -14 562 -1184 1412 -3018 763 -1647 1405 -3030
1427 -3073 51 -102 190 -331 296 -487 236 -347 590 -747 788 -889 149 -107
368 -201 589 -252 63 -14 140 -22 257 -26 150 -5 173 -3 236 16 82 25 125 62
144 122 16 54 0 132 -56 269 -51 126 -4615 9642 -4723 9850 -114 217 -172 310
-224 361 -77 75 -169 96 -273 62z"/>
<path d="M1318 27780 c-129 -20 -208 -80 -248 -187 -25 -67 -25 -129 -1 -224
16 -60 3643 -9405 3797 -9782 127 -312 224 -456 343 -510 68 -32 188 -31 256
2 100 49 177 151 265 348 60 135 -61 -193 1250 3403 617 1691 1128 3085 1136
3098 31 48 111 53 151 9 13 -13 466 -1241 1133 -3072 612 -1677 1132 -3102
1157 -3165 64 -165 175 -392 227 -464 109 -153 234 -211 368 -172 67 19 141
81 200 169 47 70 135 251 201 417 228 573 3759 9671 3772 9720 27 100 24 185
-8 246 -53 103 -122 138 -267 137 -229 -3 -609 -146 -875 -331 -331 -229 -630
-576 -812 -942 -45 -90 -364 -933 -1148 -3035 -597 -1600 -1091 -2921 -1097
-2933 -14 -27 -57 -52 -88 -52 -31 0 -76 29 -89 57 -6 13 -506 1413 -1112
3111 -605 1698 -1120 3135 -1144 3193 -60 147 -139 302 -190 375 -100 141
-256 189 -402 124 -118 -52 -226 -217 -362 -555 -22 -55 -538 -1488 -1146
-3185 -609 -1697 -1113 -3097 -1121 -3112 -42 -80 -143 -57 -195 45 -82 159
-717 1870 -1840 4950 -192 527 -365 989 -384 1027 -190 376 -566 849 -818
1027 -259 182 -667 300 -909 263z"/>
<path d="M37820 27756 c-133 -38 -214 -111 -260 -232 l-20 -55 0 -4923 -1
-4924 24 -65 c63 -172 189 -285 372 -332 148 -38 261 -40 2425 -38 2452 2
3297 11 3350 35 187 86 169 380 -41 678 -67 96 -222 248 -327 323 -176 126
-415 226 -627 262 -92 16 -246 17 -1861 15 -1178 0 -1769 2 -1787 9 -15 6 -36
25 -47 43 -20 33 -20 52 -20 1845 0 1105 4 1821 9 1836 6 14 20 35 32 46 l23
21 1122 0 c716 0 1159 4 1225 11 205 20 383 71 554 156 396 198 578 457 579
823 1 126 -12 170 -62 208 l-35 27 -1686 5 c-1378 4 -1690 7 -1709 18 -54 31
-52 -28 -52 1450 0 950 3 1378 11 1400 23 67 -142 62 1981 62 1272 0 1952 4
2008 10 367 45 699 276 860 598 58 116 81 213 87 367 9 216 -22 299 -121 324
-70 17 -5945 14 -6006 -3z"/>
<path d="M27721 27729 c-60 -12 -127 -46 -151 -76 -11 -14 -28 -49 -38 -77
-16 -48 -17 -321 -20 -5041 -2 -3429 1 -5011 8 -5058 17 -111 55 -168 135
-204 37 -16 86 -18 580 -21 483 -3 547 -1 604 14 85 23 132 68 157 149 18 58
19 223 19 5070 0 4882 0 5012 -19 5079 -22 81 -60 124 -133 152 -44 17 -89 19
-573 20 -289 1 -545 -2 -569 -7z"/>
<path d="M34735 27733 c-619 -43 -1207 -293 -1654 -706 -46 -43 -293 -333
-606 -712 -1784 -2159 -2662 -3209 -2907 -3472 -99 -107 -129 -153 -153 -237
-33 -113 0 -238 88 -333 24 -26 797 -956 1717 -2066 1175 -1419 1710 -2057
1799 -2146 200 -202 426 -386 667 -544 396 -260 821 -348 1349 -282 66 8 145
18 177 21 31 3 75 15 99 27 114 58 114 160 0 312 -21 28 -966 1148 -2099 2490
-2034 2406 -2062 2440 -2062 2482 0 38 8 51 88 146 48 58 962 1138 2032 2401
1070 1263 1958 2318 1973 2345 78 137 24 242 -138 270 -57 10 -252 12 -370 4z"/>
</g>
</svg>
