<svg width="215" height="240" viewBox="0 0 215 240" fill="none" xmlns="http://www.w3.org/2000/svg">
<path d="M70 45L107.5 7.5M107.5 7.5L145 45M107.5 7.5V132.5M45.0029 95C33.3543 95 27.5301 95 22.9358 96.903C16.8101 99.4404 11.9404 104.31 9.40301 110.436C7.5 115.03 7.5 120.851 7.5 132.5V192.5C7.5 206.501 7.5 213.497 10.2248 218.845C12.6217 223.549 16.4434 227.381 21.1475 229.778C26.49 232.5 33.4874 232.5 47.4614 232.5H167.545C181.519 232.5 188.506 232.5 193.849 229.778C198.553 227.381 202.381 223.549 204.778 218.845C207.5 213.502 207.5 206.513 207.5 192.539V132.5C207.5 120.851 207.499 115.03 205.596 110.436C203.058 104.31 198.193 99.4404 192.067 96.903C187.473 95 181.649 95 170 95" stroke="white" stroke-width="15" stroke-linecap="round" stroke-linejoin="round"/>
</svg>
