<svg version="1.1" id="Layer_1" xmlns="http://www.w3.org/2000/svg" xmlns:xlink="http://www.w3.org/1999/xlink" x="0px" y="0px"
	 width="100%" viewBox="0 0 720 544" enable-background="new 0 0 720 544" xml:space="preserve">
<path fill="#000000" opacity="1.000000" stroke="none" 
	d="
M540.855286,86.104561 
	C554.764221,97.626442 559.538147,113.084274 560.135925,129.796631 
	C560.849915,149.759384 560.380249,169.766815 560.305359,189.754440 
	C560.268738,199.525726 554.943420,205.498260 545.912170,206.302505 
	C534.631775,207.307007 528.198730,202.792755 526.335083,192.556808 
	C525.431702,187.595200 525.970947,182.587051 525.921326,177.602493 
	C525.785339,163.945923 525.967896,150.283676 525.658203,136.631989 
	C525.249756,118.631889 513.969360,107.565567 495.908173,107.363831 
	C478.587189,107.170357 461.260681,107.432709 443.940857,107.190331 
	C428.800293,106.978439 421.365936,94.631691 427.745911,80.850693 
	C430.295319,75.343796 435.007935,72.785660 440.556732,72.823410 
	C464.018311,72.983055 487.535522,71.242172 510.927368,73.843674 
	C521.769958,75.049515 531.991211,78.678864 540.855286,86.104561 
z"/>
<path fill="#000000" opacity="1.000000" stroke="none" 
	d="
M560.340820,364.000061 
	C559.882080,378.799835 561.446167,393.152985 559.453125,407.406738 
	C554.798096,440.697754 532.979797,455.731567 501.857819,457.129700 
	C482.075043,458.018402 462.220428,457.385345 442.398621,457.296722 
	C432.427216,457.252136 426.589783,451.663239 425.743073,441.778442 
	C424.912354,432.080383 429.955719,425.155762 439.314941,423.354065 
	C441.584351,422.917206 443.937286,422.751190 446.252808,422.743134 
	C462.743439,422.685730 479.235077,422.798950 495.724915,422.668304 
	C513.974182,422.523773 525.322815,411.384369 525.640015,393.059845 
	C525.934021,376.074402 525.772888,359.081421 525.881775,342.092255 
	C525.944397,332.325012 529.350159,326.460419 536.762634,324.502075 
	C550.444885,320.887268 560.848694,327.517822 560.380127,341.513702 
	C560.135010,348.834717 560.339294,356.170776 560.340820,364.000061 
z"/>
<path fill="#000000" opacity="1.000000" stroke="none" 
	d="
M210.146561,169.999954 
	C209.839325,178.139221 210.931061,185.835266 209.498871,193.420456 
	C207.653793,203.192413 201.328156,207.250198 189.825790,206.303833 
	C181.562454,205.623962 175.745132,199.325211 175.697311,190.453491 
	C175.587814,170.139191 174.803802,149.777145 175.883148,129.519196 
	C177.756561,94.357811 197.628036,74.591713 234.067245,72.859703 
	C253.838470,71.919952 273.690521,72.604500 293.505524,72.693260 
	C303.905212,72.739845 309.626343,78.270233 310.294495,88.501152 
	C310.945618,98.471008 305.750000,105.247757 296.051605,106.889717 
	C293.934570,107.248146 291.743805,107.271622 289.586609,107.276474 
	C273.268066,107.313217 256.949036,107.240646 240.630875,107.331390 
	C221.951843,107.435265 210.749893,118.385872 210.342148,137.033218 
	C210.105621,147.851730 210.200287,158.677475 210.146561,169.999954 
z"/>
<path fill="#000000" opacity="1.000000" stroke="none" 
	d="
M241.013885,457.341675 
	C226.695984,457.273010 213.347733,455.330688 201.221634,448.006226 
	C186.185104,438.923798 178.811935,424.896088 176.827911,408.181458 
	C174.053070,384.804596 175.902039,361.255524 175.834930,337.784576 
	C175.810913,329.383820 182.651871,323.859650 191.559830,323.654083 
	C202.319580,323.405762 208.330673,327.677673 209.366333,336.922058 
	C211.188980,353.191162 209.753571,369.539337 210.150375,385.847717 
	C210.295898,391.828369 209.975494,397.857849 211.992981,403.626556 
	C216.219391,415.711243 225.497757,422.390686 239.008423,422.609253 
	C253.170120,422.838348 267.337830,422.695709 281.502899,422.718506 
	C285.002472,422.724152 288.504181,422.666046 292.001221,422.766266 
	C307.332306,423.205597 314.819489,435.701355 308.070221,449.560699 
	C305.101807,455.656281 299.597504,457.249786 293.505432,457.288818 
	C276.174561,457.399902 258.842590,457.336670 241.013885,457.341675 
z"/>
<path fill="#000000" opacity="1.000000" stroke="none" 
	d="
M334.348999,297.000122 
	C334.347473,311.665588 334.224609,325.832672 334.419128,339.995453 
	C334.476044,344.138580 333.092499,345.626282 328.961304,345.400482 
	C323.810455,345.118866 318.632507,345.348267 313.466370,345.327240 
	C306.740570,345.299835 306.730164,345.287262 306.729492,338.249603 
	C306.725861,300.419495 306.726898,262.589417 306.728607,224.759308 
	C306.729126,213.260300 306.894043,201.758102 306.661926,190.263870 
	C306.572754,185.847549 308.130188,184.348007 312.468140,184.593140 
	C317.783966,184.893524 323.145233,184.912338 328.458008,184.585007 
	C333.024078,184.303665 334.452850,185.912109 334.432007,190.509537 
	C334.271881,225.839127 334.346832,261.169769 334.348999,297.000122 
z"/>
<path fill="#000000" opacity="1.000000" stroke="none" 
	d="
M386.055054,184.659882 
	C390.877380,184.668030 395.208649,184.745132 399.536652,184.659714 
	C402.294464,184.605286 403.450989,185.804291 403.394745,188.535660 
	C403.319305,192.197418 403.422943,195.862534 403.422516,199.526215 
	C403.417114,245.979996 403.340942,292.433990 403.495361,338.887238 
	C403.511566,343.766998 402.402740,345.922150 397.151703,345.431610 
	C392.528717,344.999786 387.806976,345.020172 383.178192,345.416901 
	C377.940430,345.865875 376.736511,343.671112 376.777618,338.791687 
	C376.985107,314.146057 376.875549,289.497711 376.877075,264.850342 
	C376.878571,241.035645 376.874023,217.220947 376.884460,193.406250 
	C376.888275,184.671387 376.904358,184.671387 386.055054,184.659882 
z"/>
<path fill="#000000" opacity="1.000000" stroke="none" 
	d="
M413.653137,216.999939 
	C413.654846,207.508682 413.782104,198.514893 413.598328,189.527451 
	C413.523407,185.863266 414.780823,184.414139 418.487000,184.619324 
	C422.636993,184.849045 426.811096,184.753784 430.971161,184.653671 
	C433.917725,184.582779 435.313232,185.848770 435.206268,188.793716 
	C435.176086,189.624939 435.214020,190.458481 435.213837,191.290970 
	C435.202026,240.076782 435.193604,288.862579 435.172852,337.648407 
	C435.169586,345.322021 435.143555,345.322021 427.474243,345.336456 
	C413.652435,345.362488 413.651886,345.362488 413.651978,331.389069 
	C413.652222,293.426025 413.652954,255.462982 413.653137,216.999939 
z"/>
<path fill="#000000" opacity="1.000000" stroke="none" 
	d="
M363.198303,256.000000 
	C363.199493,283.825378 363.214569,311.150757 363.190247,338.476135 
	C363.184143,345.321686 363.125183,345.394135 356.179047,345.325287 
	C344.095245,345.205505 345.638824,346.844086 345.586334,334.665253 
	C345.396912,290.689087 345.257507,246.712723 345.147217,202.736298 
	C345.135529,198.076569 345.563995,193.415756 345.552338,188.756012 
	C345.544891,185.768372 346.721924,184.598862 349.706177,184.643631 
	C365.839874,184.885727 363.056366,182.608124 363.165436,197.517151 
	C363.306793,216.843796 363.198456,236.172302 363.198303,256.000000 
z"/>
<path fill="#000000" opacity="1.000000" stroke="none" 
	d="
M290.156860,260.000000 
	C290.153595,286.655548 290.034393,312.812073 290.246735,338.965851 
	C290.287750,344.014954 288.758270,346.107727 283.699585,345.368774 
	C282.393921,345.178040 281.028625,345.224884 279.707214,345.344604 
	C275.925140,345.687225 274.562836,343.820404 274.878510,340.289062 
	C274.922821,339.793335 274.880829,339.290039 274.880890,338.790253 
	C274.889679,289.977661 274.882080,241.165054 274.955414,192.352570 
	C274.959198,189.845276 273.739532,186.201675 276.745605,185.176498 
	C280.449493,183.913376 284.720734,184.046906 288.547028,185.206558 
	C290.858429,185.907074 290.094452,188.636108 290.099152,190.529495 
	C290.155945,213.519562 290.147736,236.509811 290.156860,260.000000 
z"/>
<path fill="#000000" opacity="1.000000" stroke="none" 
	d="
M441.648682,238.999878 
	C441.649323,222.668854 441.845337,206.834045 441.537994,191.009018 
	C441.439423,185.933746 442.961304,183.952942 448.015442,184.618759 
	C450.131744,184.897568 452.315369,184.665146 455.023560,184.665146 
	C455.023560,238.227890 455.023560,291.413971 455.023560,344.546051 
	C454.640045,344.781586 454.376007,345.075104 454.086731,345.102539 
	C441.644592,346.282196 441.647095,346.279297 441.647797,333.986053 
	C441.649628,302.490662 441.648712,270.995270 441.648682,238.999878 
z"/>
</svg>