<svg width="89" height="56" viewBox="0 0 89 56" fill="none" xmlns="http://www.w3.org/2000/svg">
<path d="M74.2571 53L27.8477 53C15.6233 53 9.51115 53 5.78557 48.345C-1.28584 39.5094 6.77155 16.0158 11.6524 7.16667C13.3071 17.1667 30.3416 16.8889 36.5467 15.5C32.4124 7.17161 37.9314 4.39219 40.6909 3.00247L40.6958 3C53.002 17.5833 79.3138 25.5166 85.762 41.4119C88.5474 48.278 80.6111 53 74.2571 53Z" stroke="white" stroke-width="5" stroke-linecap="round" stroke-linejoin="round"/>
<path d="M3.00195 36.3335C20.3547 42.2893 31.0477 44.0178 44.759 39.6832C48.9137 38.3698 50.9911 37.7131 52.2859 37.8022C53.5807 37.8913 56.2223 39.1231 61.5053 41.5868C68.103 44.6636 77.1566 46.4349 86.3353 41.9932" stroke="white" stroke-width="5" stroke-linejoin="round"/>
<path d="M50.918 17.5835L57.168 11.3335" stroke="white" stroke-width="5" stroke-linecap="round" stroke-linejoin="round"/>
<path d="M59.252 23.8335L65.502 17.5835" stroke="white" stroke-width="5" stroke-linecap="round" stroke-linejoin="round"/>
</svg>
